<svg width="130" height="130" viewBox="0 0 130 130" fill="none" xmlns="http://www.w3.org/2000/svg">
<g filter="url(#filter0_d_389_11284)">
<path d="M15 43.5714C15 27.7919 27.7919 15 43.5714 15L86.4286 15C102.208 15 115 27.7919 115 43.5714V86.4286C115 102.208 102.208 115 86.4286 115H43.5714C27.7919 115 15 102.208 15 86.4286L15 43.5714Z" fill="white"/>
<path d="M84.0476 43.5715V53.0953M88.8095 48.3334H79.2857M45.9524 76.9048V81.6667M48.3333 79.2858H43.5714M60.0881 73.3334C59.8755 72.5094 59.446 71.7574 58.8443 71.1557C58.2426 70.554 57.4906 70.1245 56.6667 69.912L42.0595 66.1453C41.8103 66.0746 41.591 65.9245 41.4348 65.7178C41.2786 65.5111 41.1941 65.2591 41.1941 65.0001C41.1941 64.741 41.2786 64.489 41.4348 64.2823C41.591 64.0756 41.8103 63.9256 42.0595 63.8548L56.6667 60.0858C57.4903 59.8734 58.2421 59.4443 58.8438 58.843C59.4455 58.2417 59.8751 57.4903 60.0881 56.6667L63.8547 42.0596C63.9248 41.8094 64.0747 41.589 64.2817 41.432C64.4887 41.2749 64.7414 41.1899 65.0012 41.1899C65.261 41.1899 65.5137 41.2749 65.7207 41.432C65.9276 41.589 66.0776 41.8094 66.1476 42.0596L69.9119 56.6667C70.1245 57.4907 70.5539 58.2427 71.1557 58.8444C71.7574 59.4461 72.5093 59.8756 73.3333 60.0882L87.9405 63.8524C88.1917 63.9217 88.4132 64.0715 88.571 64.2788C88.7289 64.4861 88.8144 64.7395 88.8144 65.0001C88.8144 65.2606 88.7289 65.514 88.571 65.7213C88.4132 65.9286 88.1917 66.0784 87.9405 66.1477L73.3333 69.912C72.5093 70.1245 71.7574 70.554 71.1557 71.1557C70.5539 71.7574 70.1245 72.5094 69.9119 73.3334L66.1452 87.9405C66.0752 88.1907 65.9253 88.4112 65.7183 88.5682C65.5113 88.7252 65.2586 88.8102 64.9988 88.8102C64.739 88.8102 64.4863 88.7252 64.2793 88.5682C64.0723 88.4112 63.9224 88.1907 63.8524 87.9405L60.0881 73.3334Z" stroke="#2563EB" stroke-width="5.35714" stroke-linecap="round" stroke-linejoin="round"/>
</g>
<defs>
<filter id="filter0_d_389_11284" x="0" y="0" width="130" height="130" filterUnits="userSpaceOnUse" color-interpolation-filters="sRGB">
<feFlood flood-opacity="0" result="BackgroundImageFix"/>
<feColorMatrix in="SourceAlpha" type="matrix" values="0 0 0 0 0 0 0 0 0 0 0 0 0 0 0 0 0 0 127 0" result="hardAlpha"/>
<feOffset/>
<feGaussianBlur stdDeviation="7.5"/>
<feComposite in2="hardAlpha" operator="out"/>
<feColorMatrix type="matrix" values="0 0 0 0 0 0 0 0 0 0 0 0 0 0 0 0 0 0 0.12 0"/>
<feBlend mode="normal" in2="BackgroundImageFix" result="effect1_dropShadow_389_11284"/>
<feBlend mode="normal" in="SourceGraphic" in2="effect1_dropShadow_389_11284" result="shape"/>
</filter>
</defs>
</svg>
