<svg width="2721" height="969" viewBox="0 0 2721 969" fill="none" xmlns="http://www.w3.org/2000/svg">
<g clip-path="url(#clip0_389_11380)">
<path d="M2675.79 7.07541L2654.66 0M2675.79 7.07541H2613.16M2675.79 7.07541L2697.63 14.3845M2675.79 7.07541H2720.15M2593.03 0H2654.66L2662.35 0.00275848L2669.96 0.0180786L2677.41 0.0611534L2684.63 0.145987L2691.54 0.283657L2698.06 0.490882L2704.11 0.77874L2709.73 1.14583L2714.56 1.65343L2718.95 2.24167L2720.15 2.4477V7.07541M2593.03 0H2531.4M2593.03 0L2613.16 7.07541M2531.4 0H2469.77M2531.4 0L2550.52 7.07541M2469.77 0H2408.14M2469.77 0L2487.89 7.07541M2408.14 0H2346.51M2408.14 0L2425.25 7.07541M2346.51 0H2284.88M2346.51 0L2362.62 7.07541M2284.88 0H2223.25M2284.88 0L2299.98 7.07541M2223.25 0H2161.62M2223.25 0L2237.34 7.07541M2161.62 0H2099.99M2161.62 0L2174.71 7.07541M2099.99 0H2038.36M2099.99 0L2112.07 7.07541M2038.36 0H1976.74M2038.36 0L2049.44 7.07541M1976.74 0H1915.11M1976.74 0L1986.8 7.07541M1915.11 0H1853.48M1915.11 0L1917.34 1.74798L1920.73 4.39434L1924.16 7.07541M1853.48 0H1791.85M1853.48 0L1855.47 1.74798L1861.53 7.07541M1791.85 0H1730.22M1791.85 0L1798.89 7.07541M1730.22 0H1668.59M1730.22 0L1732.46 2.62684L1734.73 5.28431L1735.49 6.17848L1736.26 7.07541M1668.59 0H1606.96M1668.59 0L1670.46 2.62684L1671.09 3.50849L1671.72 4.39434L1673.62 7.07541M1606.96 0H1545.33M1606.96 0L1610.99 7.07541M1545.33 0L1545.7 0.871892L1546.08 1.74798L1547.97 6.17848L1548.35 7.07541M1545.33 0H1483.7M1483.7 0H1422.07M1483.7 0L1485.71 7.07541M1422.07 0H1360.44M1422.07 0L1422.45 2.62684L1423.08 7.07541M1360.44 0H1298.81M1360.44 0V7.07541M1298.81 0H1237.18M1298.81 0L1298.44 2.62684L1297.81 7.07541M1237.18 0H1175.55M1237.18 0L1235.17 7.07541M1175.55 0L1175.18 0.871892L1174.81 1.74798L1172.92 6.17848L1172.54 7.07541M1175.55 0H1113.93M1113.93 0H1052.3M1113.93 0L1110.41 6.17848L1109.9 7.07541M1052.3 0H990.667M1052.3 0L1050.43 2.62684L1049.8 3.50849L1048.54 5.28431L1047.9 6.17848L1047.26 7.07541M990.667 0H929.038M990.667 0L988.426 2.62684L986.156 5.28431L985.394 6.17848L984.627 7.07541M929.038 0H867.409M929.038 0L921.993 7.07541M867.409 0H805.779M867.409 0L865.42 1.74798L859.357 7.07541M805.779 0H744.15M805.779 0L796.721 7.07541M744.15 0H682.521M744.15 0L734.085 7.07541M682.521 0H620.891M682.521 0L671.449 7.07541M620.891 0H559.262M620.891 0L608.813 7.07541M559.262 0H497.633M559.262 0L546.177 7.07541M497.633 0H436.004M497.633 0L483.541 7.07541M436.004 0H374.374M436.004 0L420.905 7.07541M374.374 0H312.745M374.374 0L358.27 7.07541M312.745 0H251.116M312.745 0L295.634 7.07541M251.116 0H189.486M251.116 0L232.998 7.07541M189.486 0H127.857M189.486 0L170.363 7.07541M0.732269 7.07541V2.44775L1.93901 2.24167L6.32974 1.65343L11.1525 1.14583L16.7726 0.77874L22.8276 0.490882L29.3471 0.283657L36.2533 0.145987L43.4725 0.0611534L50.9254 0.0180786L58.537 0.00275848L66.2278 0H127.857M127.857 0L107.727 7.07541M66.2278 0L45.0914 7.07541M170.363 7.07541H232.998M170.363 7.07541H107.727M170.363 7.07541L150.604 14.3845M232.998 7.07541L214.279 14.3845M232.998 7.07541H295.634M420.905 7.07541H483.541M420.905 7.07541H358.27M420.905 7.07541L417.054 8.88044L405.307 14.3845M483.541 7.07541L468.983 14.3845M483.541 7.07541H546.177M671.449 7.07541H734.085M671.449 7.07541H608.813M671.449 7.07541L668.625 8.88044L667.203 9.78713L660.009 14.3845M734.085 7.07541L732.803 7.97515L731.517 8.88044L723.686 14.3845M734.085 7.07541H796.721M921.993 7.07541L921.095 7.97515L914.713 14.3845M921.993 7.07541H984.627M921.993 7.07541H859.357M984.627 7.07541L983.088 8.88044L982.312 9.78713L981.534 10.6994L978.388 14.3845M984.627 7.07541H1047.26M1172.54 7.07541H1235.17M1172.54 7.07541H1109.9M1172.54 7.07541L1169.42 14.3845M1235.17 7.07541L1234.91 7.97515L1234.66 8.88044L1234.4 9.78713L1233.62 12.5336L1233.09 14.3845M1235.17 7.07541H1297.81M1423.08 7.07541H1485.71M1423.08 7.07541H1360.44M1423.08 7.07541L1424.12 14.3845M1485.71 7.07541L1485.97 7.97515L1486.23 8.88044L1486.49 9.78713L1487.79 14.3845M1485.71 7.07541H1548.35M1673.62 7.07541H1736.26M1673.62 7.07541H1610.99M1673.62 7.07541L1674.91 8.88044L1677.51 12.5336L1678.16 13.457L1678.82 14.3845M1736.26 7.07541L1737.8 8.88044L1738.57 9.78713L1739.35 10.6994L1742.5 14.3845M1736.26 7.07541H1798.89M1924.16 7.07541H1986.8M1924.16 7.07541H1861.53M1924.16 7.07541L1926.48 8.88044L1927.64 9.78713L1933.52 14.3845M1986.8 7.07541L1988.08 7.97515L1989.37 8.88044L1997.2 14.3845M1986.8 7.07541H2049.44M2174.71 7.07541H2237.34M2174.71 7.07541H2112.07M2174.71 7.07541L2178.05 8.88044L2179.73 9.78713L2188.23 14.3845M2237.34 7.07541L2251.9 14.3845M2237.34 7.07541H2299.98M2425.25 7.07541H2487.89M2425.25 7.07541H2362.62M2425.25 7.07541L2442.93 14.3845M2487.89 7.07541L2506.61 14.3845M2487.89 7.07541H2550.52M0.512734 73.2408H0.732269M63.5566 73.2408L87.4705 63.9028M63.5566 73.2408L38.7263 82.9361M63.5566 73.2408H135.606M63.5566 73.2408H0.732269M87.4705 63.9028H16.7499M87.4705 63.9028L110.519 54.9028M87.4705 63.9028H158.191M16.7499 63.9028L41.0788 54.9028M16.7499 63.9028H0.732269M16.7499 63.9028L0.732269 69.827M87.1844 37.8455H154.198M87.1844 37.8455L109.05 29.7563M87.1844 37.8455H20.1719M87.1844 37.8455L64.5409 46.2226M154.198 37.8455L174.914 29.7563M154.198 37.8455L132.747 46.2226M154.198 37.8455H221.212M109.05 29.7563H174.914M109.05 29.7563L130.178 21.9411M109.05 29.7563H43.1878M174.914 29.7563H240.776M174.914 29.7563L194.929 21.9411M0.0425 220.632H0.732269M58.1786 220.632L89.0157 205.15M58.1786 220.632L25.809 236.884M58.1786 220.632H151.198M58.1786 220.632H0.732269M89.0157 205.15L118.427 190.385M89.0157 205.15H179.832M89.0157 205.15H0.732269M29.7111 190.385H118.427M29.7111 190.385L59.7975 176.287M29.7111 190.385H0.732269M29.7111 190.385L0.732269 203.963M88.5526 162.812H173.345M88.5526 162.812L116.064 149.921M88.5526 162.812H3.76046M88.5526 162.812L59.7975 176.287M173.345 162.812L199.023 149.921M173.345 162.812L146.506 176.287M173.345 162.812H258.138M116.064 149.921H199.023M116.064 149.921H33.1061M116.064 149.921L142.411 137.575M199.023 149.921L223.613 137.575M199.023 149.921H281.981M191.893 114.388H269.796M191.893 114.388L215.157 103.487M191.893 114.388H113.99M191.893 114.388L167.665 125.741M269.796 114.388L291.509 103.487M269.796 114.388L247.184 125.741M269.796 114.388H347.701M215.157 103.487H291.509M215.157 103.487H138.805M215.157 103.487L237.513 93.0111M291.509 103.487L312.375 93.0111M291.509 103.487H367.863M279.704 73.2408H351.753M279.704 73.2408L299.632 63.9028M279.704 73.2408H207.655M279.704 73.2408L259.012 82.9361M351.753 73.2408L370.353 63.9028M351.753 73.2408L332.441 82.9361M351.753 73.2408H423.802M299.632 63.9028H370.353M299.632 63.9028H228.912M299.632 63.9028L318.839 54.9028M370.353 63.9028L388.28 54.9028M370.353 63.9028H441.073M355.239 37.8455H422.252M355.239 37.8455L372.501 29.7563M355.239 37.8455H288.226M355.239 37.8455L337.363 46.2226M422.252 37.8455L438.364 29.7563M422.252 37.8455L405.568 46.2226M422.252 37.8455H489.266M372.501 29.7563H438.364M372.501 29.7563L389.182 21.9411M372.501 29.7563H306.639M438.364 29.7563H504.227M438.364 29.7563L453.932 21.9411M48.3887 489.04L91.789 458.534M48.3887 489.04L1.9121 521.707M48.3887 489.04H179.594M48.3887 489.04H0.732269M91.789 458.534L132.412 429.982M91.789 458.534H218.654M91.789 458.534H0.732269M90.908 378.031H206.321M90.908 378.031L127.996 354.334M90.908 378.031L51.5189 403.201M90.908 378.031H0.732269M206.321 378.031L240.036 354.334M206.321 378.031L170.512 403.201M206.321 378.031H321.733M127.996 354.334H240.036M127.996 354.334H15.9554M127.996 354.334L162.978 331.98M240.036 354.334L271.839 331.98M240.036 354.334H352.077M227.304 290.876H330.318M227.304 290.876L256.944 271.937M227.304 290.876H124.292M227.304 290.876L196.029 310.862M330.318 290.876L357.263 271.937M330.318 290.876L301.884 310.862M330.318 290.876H433.33M256.944 271.937H357.263M256.944 271.937H156.626M256.944 271.937L285.072 253.964M357.263 271.937L382.834 253.964M357.263 271.937H457.579M337.235 220.632H430.255M337.235 220.632L361.465 205.15M337.235 220.632H244.217M337.235 220.632L311.803 236.884M430.255 220.632L452.281 205.15M430.255 220.632L407.133 236.884M430.255 220.632H523.273M361.465 205.15H452.281M361.465 205.15H270.649M361.465 205.15L384.573 190.385M452.281 205.15L473.288 190.385M452.281 205.15H543.097M427.724 162.812H512.516M427.724 162.812L447.899 149.921M427.724 162.812H342.93M427.724 162.812L406.636 176.287M512.516 162.812L530.858 149.921M512.516 162.812L493.345 176.287M512.516 162.812H597.308M447.899 149.921H530.858M447.899 149.921H364.941M447.899 149.921L467.219 137.575M530.858 149.921L548.422 137.575M530.858 149.921H613.816M503.506 114.388H581.409M503.506 114.388L520.567 103.487M503.506 114.388H425.604M503.506 114.388L485.74 125.741M581.409 114.388L583.384 113.001L596.919 103.487M581.409 114.388L565.259 125.741M581.409 114.388H659.314M520.567 103.487H596.919M520.567 103.487H444.215M520.567 103.487L536.961 93.0111M596.919 103.487L611.823 93.0111M596.919 103.487H673.272M567.9 73.2408H639.951M567.9 73.2408L582.516 63.9028M567.9 73.2408H495.851M567.9 73.2408L552.727 82.9361M639.951 73.2408L653.236 63.9028M639.951 73.2408L634.839 76.8341L626.155 82.9361M639.951 73.2408H712M582.516 63.9028H653.236M582.516 63.9028H511.795M582.516 63.9028L596.6 54.9028M653.236 63.9028L666.04 54.9028M653.236 63.9028H723.957M623.293 37.8455H690.307M623.293 37.8455L635.952 29.7563M623.293 37.8455H556.28M623.293 37.8455L610.184 46.2226M690.307 37.8455L698.976 31.7532L700.398 30.752L701.816 29.7563M690.307 37.8455L678.389 46.2226M690.307 37.8455H757.321M635.952 29.7563H701.816M635.952 29.7563L648.184 21.9411M635.952 29.7563H570.09M701.816 29.7563H767.678M701.816 29.7563L712.934 21.9411M95.9262 836.543H276.572M95.9262 836.543L152.807 779.428M95.9262 836.543L33.422 899.305M95.9262 836.543L0.732269 836.544M276.572 836.543L325.328 779.428M276.572 836.543L222.997 899.305M276.572 836.543H457.217M152.807 779.428H325.328M152.807 779.428L204.792 727.229M152.807 779.428H0.732269M325.328 779.428L369.885 727.229M325.328 779.428H497.847M296.398 635.246H448.406M296.398 635.246L336.963 594.513M296.398 635.246H144.393M296.398 635.246L252.486 679.34M448.406 635.246L483.175 594.513M448.406 635.246L410.766 679.34M448.406 635.246H600.411M336.963 594.513H483.175M336.963 594.513H190.752M336.963 594.513L374.549 556.774M483.175 594.513L515.391 556.774M483.175 594.513H629.386M442.005 489.04H573.21M442.005 489.04L472.386 458.534M442.005 489.04H310.799M442.005 489.04L409.471 521.707M573.21 489.04L599.251 458.534M573.21 489.04L545.325 521.707M573.21 489.04H704.415M472.386 458.534H599.251M472.386 458.534H345.519M472.386 458.534L500.821 429.982M599.251 458.534L623.624 429.982M599.251 458.534H726.117M552.557 378.031H667.969M552.557 378.031L576.159 354.334M552.557 378.031H437.146M552.557 378.031L527.491 403.201M667.969 378.031L688.199 354.334M667.969 378.031L646.484 403.201M667.969 378.031H783.382M576.159 354.334H688.199M576.159 354.334H464.117M576.159 354.334L598.42 331.98M688.199 354.334L707.28 331.98M688.199 354.334H800.239M639.354 290.876H742.368M639.354 290.876L658.216 271.937M639.354 290.876H536.342M639.354 290.876L619.452 310.862M742.368 290.876L758.534 271.937M742.368 290.876L725.308 310.862M742.368 290.876H845.38M658.216 271.937H758.534M658.216 271.937H557.898M658.216 271.937L676.116 253.964M758.534 271.937L773.876 253.964M758.534 271.937H858.853M709.311 220.632H802.33M709.311 220.632L724.73 205.15M709.311 220.632H616.292M709.311 220.632L693.127 236.884M802.33 220.632L815.546 205.15M802.33 220.632L788.457 236.884M802.33 220.632H895.348M724.73 205.15H815.546M724.73 205.15H633.913M724.73 205.15L739.435 190.385M815.546 205.15L828.15 190.385M815.546 205.15H906.362M766.894 162.812H851.687M766.894 162.812L779.733 149.921M766.894 162.812H682.102M766.894 162.812L753.475 176.287M851.687 162.812L862.691 149.921M851.687 162.812L840.185 176.287M851.687 162.812H936.479M779.733 149.921H862.691M779.733 149.921H696.774M779.733 149.921L792.029 137.575M862.691 149.921L873.23 137.575M862.691 149.921H945.65M815.12 114.388H893.024M815.12 114.388L825.976 103.487M815.12 114.388H737.217M815.12 114.388L803.813 125.741M893.024 114.388L891.833 115.781L883.332 125.741M893.024 114.388L902.328 103.487M893.024 114.388H970.927M825.976 103.487H902.328M825.976 103.487H749.624M825.976 103.487L836.409 93.0111M902.328 103.487L911.271 93.0111M902.328 103.487H978.681M856.098 73.2408H928.147M856.098 73.2408L865.398 63.9028M856.098 73.2408H784.049M856.098 73.2408L846.443 82.9361M928.147 73.2408L936.118 63.9028M928.147 73.2408L925.081 76.8341L923.011 79.258L919.871 82.9361M928.147 73.2408H1000.2M865.398 63.9028H936.118M865.398 63.9028H794.677M865.398 63.9028L874.36 54.9028M936.118 63.9028L939.033 60.4889L940.954 58.2388L943.802 54.9028M936.118 63.9028H1006.84M891.348 37.8455H958.361M891.348 37.8455L897.416 31.7532L899.403 29.7563M891.348 37.8455H824.334M891.348 37.8455L884.064 45.1588L883.006 46.2226M958.361 37.8455L963.563 31.7532L964.416 30.752L965.267 29.7563M958.361 37.8455L954.817 41.9965L951.211 46.2226M958.361 37.8455H1025.37M899.403 29.7563H965.267M899.403 29.7563L907.188 21.9411M899.403 29.7563H833.541M965.267 29.7563H1031.13M965.267 29.7563L971.938 21.9411M818.508 836.543H999.152M818.508 836.543L842.885 779.428M818.508 836.543H637.863M818.508 836.543L791.72 899.305M999.152 836.543L1015.41 779.428M999.152 836.543L981.295 899.305M999.152 836.543H1179.8M842.885 779.428H1015.41M842.885 779.428H670.366M842.885 779.428L865.164 727.229M1015.41 779.428L1030.26 727.229M1015.41 779.428H1187.92M904.424 635.246H1056.43M904.424 635.246L921.809 594.513M904.424 635.246H752.417M904.424 635.246L885.604 679.34M1056.43 635.246L1068.02 594.513M1056.43 635.246L1043.88 679.34M1056.43 635.246H1208.44M921.809 594.513H1068.02M921.809 594.513H775.597M921.809 594.513L937.917 556.774M1068.02 594.513L1078.76 556.774M1068.02 594.513H1214.23M966.826 489.04H1098.03M966.826 489.04L979.847 458.534M966.826 489.04H835.621M966.826 489.04L952.884 521.707M1098.03 489.04L1106.71 458.534M1098.03 489.04L1088.74 521.707M1098.03 489.04H1229.24M979.847 458.534H1106.71M979.847 458.534H852.982M979.847 458.534L992.034 429.982M1106.71 458.534L1114.84 429.982M1106.71 458.534H1233.58M1014.21 378.031H1129.62M1014.21 378.031L1024.32 354.334M1014.21 378.031H898.794M1014.21 378.031L1003.46 403.201M1129.62 378.031L1136.36 354.334M1129.62 378.031L1122.46 403.201M1129.62 378.031H1245.03M1024.32 354.334H1136.36M1024.32 354.334H912.281M1024.32 354.334L1033.86 331.98M1136.36 354.334L1142.72 331.98M1136.36 354.334H1248.4M1051.4 290.876H1154.42M1051.4 290.876L1059.49 271.937M1051.4 290.876H948.392M1051.4 290.876L1042.88 310.862M1154.42 290.876L1159.81 271.937M1154.42 290.876L1148.73 310.862M1154.42 290.876H1257.43M1059.49 271.937H1159.81M1059.49 271.937H959.171M1059.49 271.937L1067.16 253.964M1159.81 271.937L1164.92 253.964M1159.81 271.937H1260.12M1081.39 220.632H1174.4M1081.39 220.632L1087.99 205.15M1081.39 220.632H988.368M1081.39 220.632L1074.45 236.884M1174.4 220.632L1178.81 205.15M1174.4 220.632L1169.78 236.884M1174.4 220.632H1267.42M1087.99 205.15H1178.81M1087.99 205.15H997.178M1087.99 205.15L1090.39 199.532L1094.3 190.385M1178.81 205.15L1183.01 190.385M1178.81 205.15H1269.63M1106.07 162.812H1190.86M1106.07 162.812L1111.57 149.921M1106.07 162.812H1021.27M1106.07 162.812L1101.78 172.862L1100.31 176.287M1190.86 162.812L1192.25 157.911L1194.53 149.921M1190.86 162.812L1187.02 176.287M1190.86 162.812H1275.65M1111.57 149.921L1112.24 148.348L1116.84 137.575M1111.57 149.921H1194.53M1111.57 149.921H1028.61M1194.53 149.921L1195.86 145.229L1196.3 143.681L1196.74 142.143L1198.04 137.575M1194.53 149.921H1277.48M1126.73 114.388H1204.64M1126.73 114.388L1129.08 108.882L1129.66 107.524L1130.24 106.171L1130.81 104.826L1131.39 103.487M1126.73 114.388H1048.83M1126.73 114.388L1121.89 125.741M1204.64 114.388L1206.97 106.171L1207.36 104.826L1207.74 103.487M1204.64 114.388L1201.41 125.741M1204.64 114.388H1282.54M1131.39 103.487H1207.74M1131.39 103.487H1055.03M1131.39 103.487L1134.2 96.8909L1134.75 95.5907L1135.86 93.0111M1207.74 103.487L1209.61 96.8909L1209.99 95.5907L1210.35 94.2975L1210.72 93.0111M1207.74 103.487H1284.09M1144.3 73.2408H1216.34M1144.3 73.2408L1148.28 63.9028M1144.3 73.2408H1072.25M1144.3 73.2408L1143.27 75.6299L1141.73 79.258L1140.16 82.9361M1216.34 73.2408L1216 74.4326L1213.94 81.7041L1213.59 82.9361M1216.34 73.2408L1219 63.9028M1216.34 73.2408H1288.39M1148.28 63.9028H1219M1148.28 63.9028H1077.56M1148.28 63.9028L1152.12 54.9028M1219 63.9028L1219.97 60.4889L1220.29 59.3611L1220.61 58.2388L1221.56 54.9028M1219 63.9028H1289.72M1159.4 37.8455H1226.42M1159.4 37.8455L1162 31.7532L1162.85 29.7563M1159.4 37.8455H1092.39M1159.4 37.8455L1158.08 40.9521L1157.63 41.9965L1157.18 43.0464L1155.83 46.2226M1226.42 37.8455L1226.71 36.8192L1227.29 34.7792L1227.86 32.7573L1228.72 29.7563M1226.42 37.8455L1225.23 41.9965L1224.94 43.0464L1224.33 45.1588L1224.03 46.2226M1226.42 37.8455H1293.43M1162.85 29.7563H1228.72M1162.85 29.7563L1165.78 22.9034L1166.19 21.9411M1162.85 29.7563H1096.99M1228.72 29.7563L1229 28.7648L1229.28 27.7775L1229.56 26.7943L1229.84 25.8153L1230.67 22.9034L1230.94 21.9411M1228.72 29.7563H1294.58M1541.09 836.543H1721.73M1541.09 836.543L1532.96 779.428M1541.09 836.543H1360.44M1541.09 836.543L1550.02 899.305M1721.73 836.543L1705.48 779.428M1721.73 836.543L1739.59 899.305M1721.73 836.543H1902.38M1532.96 779.428H1705.48M1532.96 779.428H1360.44M1532.96 779.428L1525.54 727.229M1705.48 779.428L1690.63 727.229M1705.48 779.428H1878M1512.45 635.246H1664.46M1512.45 635.246L1506.65 594.513M1512.45 635.246H1360.44M1512.45 635.246L1518.72 679.34M1664.46 635.246L1652.87 594.513M1664.46 635.246L1677 679.34M1664.46 635.246H1816.46M1506.65 594.513H1652.87M1506.65 594.513H1360.44M1506.65 594.513L1501.28 556.774M1652.87 594.513L1642.13 556.774M1652.87 594.513H1799.08M1491.65 489.04H1622.85M1491.65 489.04L1487.31 458.534M1491.65 489.04H1360.44M1491.65 489.04L1496.3 521.707M1622.85 489.04L1614.17 458.534M1622.85 489.04L1632.15 521.707M1622.85 489.04H1754.06M1487.31 458.534H1614.17M1487.31 458.534H1360.44M1487.31 458.534L1483.25 429.982M1614.17 458.534L1606.05 429.982M1614.17 458.534H1741.04M1475.86 378.031H1591.27M1475.86 378.031L1472.48 354.334M1475.86 378.031H1360.44M1475.86 378.031L1479.44 403.201M1591.27 378.031L1584.52 354.334M1591.27 378.031L1598.43 403.201M1591.27 378.031H1706.68M1472.48 354.334H1584.52M1472.48 354.334H1360.44M1472.48 354.334L1469.3 331.98M1584.52 354.334L1578.16 331.98M1584.52 354.334H1696.56M1463.45 290.876H1566.47M1463.45 290.876L1460.76 271.937M1463.45 290.876H1360.44M1463.45 290.876L1466.3 310.862M1566.47 290.876L1561.08 271.937M1566.47 290.876L1572.15 310.862M1566.47 290.876H1669.48M1460.76 271.937H1561.08M1460.76 271.937H1360.44M1460.76 271.937L1458.2 253.964M1561.08 271.937L1555.96 253.964M1561.08 271.937H1661.4M1453.46 220.632H1546.48M1453.46 220.632L1451.26 205.15M1453.46 220.632H1360.44M1453.46 220.632L1455.77 236.884M1546.48 220.632L1542.07 205.15M1546.48 220.632L1551.11 236.884M1546.48 220.632H1639.5M1451.26 205.15H1542.07M1451.26 205.15H1360.44M1451.26 205.15L1449.16 190.385M1542.07 205.15L1537.87 190.385M1542.07 205.15H1632.89M1445.24 162.812H1530.03M1445.24 162.812L1443.4 149.921M1445.24 162.812H1360.44M1445.24 162.812L1447.15 176.287M1530.03 162.812L1526.81 151.502L1526.36 149.921M1530.03 162.812L1533.86 176.287M1530.03 162.812H1614.82M1443.4 149.921L1443.18 148.348L1441.64 137.575M1443.4 149.921H1526.36M1443.4 149.921H1360.44M1526.36 149.921L1525.02 145.229L1524.59 143.681L1524.15 142.143L1522.85 137.575M1526.36 149.921H1609.32M1438.35 114.388H1516.25M1438.35 114.388L1436.79 103.487M1438.35 114.388H1360.44M1438.35 114.388L1438.94 118.59L1439.15 120.006L1439.35 121.428L1439.76 124.296L1439.96 125.741M1516.25 114.388L1513.91 106.171L1513.15 103.487M1516.25 114.388L1519.48 125.741M1516.25 114.388H1594.15M1436.79 103.487H1513.15M1436.79 103.487H1360.44M1436.79 103.487L1435.3 93.0111M1513.15 103.487L1511.27 96.8909L1510.9 95.5907L1510.53 94.2975L1510.17 93.0111M1513.15 103.487H1589.5M1432.49 73.2408H1504.54M1432.49 73.2408L1431.16 63.9028M1432.49 73.2408H1360.44M1432.49 73.2408L1433.87 82.9361M1504.54 73.2408L1504.88 74.4326L1506.95 81.7041L1507.3 82.9361M1504.54 73.2408L1501.88 63.9028M1504.54 73.2408H1576.59M1431.16 63.9028H1501.88M1431.16 63.9028H1360.44M1431.16 63.9028L1429.88 54.9028M1501.88 63.9028L1500.91 60.4889L1500.59 59.3611L1500.27 58.2388L1499.32 54.9028M1501.88 63.9028H1572.6M1427.46 37.8455H1494.47M1427.46 37.8455L1426.31 29.7563M1427.46 37.8455H1360.44M1427.46 37.8455L1428.65 46.2226M1494.47 37.8455L1494.18 36.8192L1493.6 34.7792L1493.31 33.7654L1492.74 31.7532L1492.45 30.752L1492.17 29.7563M1494.47 37.8455L1495.65 41.9965L1495.95 43.0464L1496.55 45.1588L1496.85 46.2226M1494.47 37.8455H1561.48M1426.31 29.7563L1426.16 28.7648L1426.02 27.7775L1425.88 26.7943L1425.19 21.9411M1426.31 29.7563H1492.17M1426.31 29.7563H1360.44M1492.17 29.7563H1558.03M1492.17 29.7563L1491.61 27.7775L1491.32 26.7943L1491.05 25.8153L1490.22 22.9034L1489.94 21.9411M2263.67 836.543H2444.31M2263.67 836.543L2223.04 779.428M2263.67 836.543H2083.02M2263.67 836.543L2308.32 899.305M2444.31 836.543L2395.56 779.428M2444.31 836.543L2497.89 899.305M2444.31 836.543H2624.96M2223.04 779.428H2395.56M2223.04 779.428H2050.52M2223.04 779.428L2185.91 727.229M2395.56 779.428L2351 727.229M2395.56 779.428H2568.08M2120.47 635.246H2272.48M2120.47 635.246L2091.5 594.513M2120.47 635.246H1968.47M2120.47 635.246L2151.84 679.34M2272.48 635.246L2237.71 594.513M2272.48 635.246L2310.12 679.34M2272.48 635.246H2424.49M2091.5 594.513H2237.71M2091.5 594.513H1945.29M2091.5 594.513L2064.65 556.774M2237.71 594.513L2205.49 556.774M2237.71 594.513H2383.92M2016.47 489.04H2147.68M2016.47 489.04L1994.77 458.534M2016.47 489.04H1885.26M2016.47 489.04L2039.71 521.707M2147.68 489.04L2121.64 458.534M2147.68 489.04L2175.56 521.707M2147.68 489.04H2278.88M1994.77 458.534H2121.64M1994.77 458.534H1867.9M1994.77 458.534L1974.46 429.982M2121.64 458.534L2097.26 429.982M2121.64 458.534H2248.5M1937.5 378.031H2052.92M1937.5 378.031L1920.65 354.334M1937.5 378.031H1822.09M1937.5 378.031L1955.41 403.201M2052.92 378.031L2032.69 354.334M2052.92 378.031L2074.4 403.201M2052.92 378.031H2168.33M1920.65 354.334H2032.69M1920.65 354.334H1808.6M1920.65 354.334L1904.74 331.98M2032.69 354.334L2013.61 331.98M2032.69 354.334H2144.73M1875.51 290.876H1978.52M1875.51 290.876L1862.03 271.937M1875.51 290.876H1772.49M1875.51 290.876L1889.72 310.862M1978.52 290.876L1962.35 271.937M1978.52 290.876L1995.58 310.862M1978.52 290.876H2081.53M1862.03 271.937H1962.35M1862.03 271.937H1761.71M1862.03 271.937L1849.25 253.964M1962.35 271.937L1947.01 253.964M1962.35 271.937H2062.67M1825.54 220.632H1918.56M1825.54 220.632L1814.52 205.15M1825.54 220.632H1732.52M1825.54 220.632L1837.1 236.884M1918.56 220.632L1905.34 205.15M1918.56 220.632L1932.43 236.884M1918.56 220.632H2011.57M1814.52 205.15H1905.34M1814.52 205.15H1723.71M1814.52 205.15L1804.02 190.385M1905.34 205.15L1892.74 190.385M1905.34 205.15H1996.16M1784.41 162.812L1785.58 164.464L1786.76 166.124L1793.99 176.287M1784.41 162.812H1869.2M1784.41 162.812L1775.24 149.921M1784.41 162.812H1699.61M1869.2 162.812L1858.19 149.921M1869.2 162.812L1880.7 176.287M1869.2 162.812H1953.99M1775.24 149.921H1858.19M1775.24 149.921H1692.28M1775.24 149.921L1766.45 137.575M1858.19 149.921L1847.66 137.575M1858.19 149.921H1941.15M1749.96 114.388H1827.86M1749.96 114.388L1742.2 103.487M1749.96 114.388H1672.06M1749.96 114.388L1758.03 125.741M1827.86 114.388L1822 107.524L1818.56 103.487M1827.86 114.388L1837.55 125.741M1827.86 114.388H1905.77M1742.2 103.487H1818.56M1742.2 103.487H1665.85M1742.2 103.487L1735.67 94.2975L1734.75 93.0111M1818.56 103.487L1809.61 93.0111M1818.56 103.487H1894.91M1720.69 73.2408H1792.74M1720.69 73.2408L1719.01 70.8726L1714.05 63.9028M1720.69 73.2408H1648.64M1720.69 73.2408L1722.39 75.6299L1725.84 80.4775L1727.59 82.9361M1792.74 73.2408L1784.77 63.9028M1792.74 73.2408L1795.81 76.8341L1797.87 79.258L1801.01 82.9361M1792.74 73.2408H1864.79M1714.05 63.9028H1784.77M1714.05 63.9028H1643.32M1714.05 63.9028L1709.22 57.1208L1707.64 54.9028M1784.77 63.9028L1781.85 60.4889L1779.93 58.2388L1777.08 54.9028M1784.77 63.9028H1855.49M1695.51 37.8455H1762.52M1695.51 37.8455L1691.89 32.7573L1689.76 29.7563M1695.51 37.8455H1628.5M1695.51 37.8455L1701.47 46.2226M1762.52 37.8455L1757.32 31.7532L1756.47 30.752L1755.62 29.7563M1762.52 37.8455L1766.07 41.9965L1769.67 46.2226M1762.52 37.8455H1829.54M1689.76 29.7563H1755.62M1689.76 29.7563L1686.95 25.8153L1685.57 23.8698L1684.88 22.9034L1684.2 21.9411M1689.76 29.7563H1623.89M1755.62 29.7563H1821.48M1755.62 29.7563L1748.95 21.9411M2676.35 594.513H2530.13M2676.35 594.513L2628.02 556.774M2676.35 594.513H2720.15M2676.35 594.513L2720.15 628.727M2541.29 489.04H2672.5M2541.29 489.04L2502.23 458.534M2541.29 489.04H2410.09M2541.29 489.04L2583.12 521.707M2672.5 489.04L2629.1 458.534M2672.5 489.04L2718.97 521.707M2672.5 489.04H2720.15M2502.23 458.534H2629.1M2502.23 458.534H2375.37M2502.23 458.534L2465.67 429.982M2629.1 458.534L2588.47 429.982M2629.1 458.534H2720.15M2399.15 378.031H2514.57M2399.15 378.031L2368.81 354.334M2399.15 378.031H2283.74M2399.15 378.031L2431.38 403.201M2514.57 378.031L2480.85 354.334M2514.57 378.031L2550.37 403.201M2514.57 378.031H2629.98M2368.81 354.334H2480.85M2368.81 354.334H2256.77M2368.81 354.334L2340.19 331.98M2480.85 354.334L2449.05 331.98M2480.85 354.334H2592.89M2287.56 290.876H2390.57M2287.56 290.876L2263.31 271.937M2287.56 290.876H2184.54M2287.56 290.876L2313.15 310.862M2390.57 290.876L2363.62 271.937M2390.57 290.876L2419 310.862M2390.57 290.876H2493.58M2263.31 271.937H2363.62M2263.31 271.937H2162.99M2263.31 271.937L2240.29 253.964M2363.62 271.937L2338.05 253.964M2363.62 271.937H2463.94M2197.61 220.632H2290.63M2197.61 220.632L2177.79 205.15M2197.61 220.632H2104.59M2197.61 220.632L2218.42 236.884M2290.63 220.632L2268.6 205.15M2290.63 220.632L2313.75 236.884M2290.63 220.632H2383.65M2177.79 205.15H2268.6M2177.79 205.15H2086.97M2177.79 205.15L2158.88 190.385M2268.6 205.15L2247.6 190.385M2268.6 205.15H2359.42M2123.58 162.812H2208.37M2123.58 162.812L2107.07 149.921M2123.58 162.812H2038.78M2123.58 162.812L2140.83 176.287M2208.37 162.812L2190.03 149.921M2208.37 162.812L2227.54 176.287M2208.37 162.812H2293.16M2107.07 149.921H2190.03M2107.07 149.921H2024.11M2107.07 149.921L2091.26 137.575M2190.03 149.921L2172.46 137.575M2190.03 149.921H2272.99M2061.57 114.388H2139.47M2061.57 114.388L2047.61 103.487M2061.57 114.388H1983.67M2061.57 114.388L2076.11 125.741M2139.47 114.388L2123.97 103.487M2139.47 114.388L2155.63 125.741M2139.47 114.388H2217.38M2047.61 103.487H2123.97M2047.61 103.487H1971.26M2047.61 103.487L2034.2 93.0111M2123.97 103.487L2109.06 93.0111M2123.97 103.487H2200.32M2008.89 73.2408H2080.94M2008.89 73.2408L1996.93 63.9028M2008.89 73.2408H1936.84M2008.89 73.2408L2011.95 75.6299L2013.49 76.8341L2021.3 82.9361M2080.94 73.2408L2067.65 63.9028M2080.94 73.2408L2094.73 82.9361M2080.94 73.2408H2152.98M1996.93 63.9028H2067.65M1996.93 63.9028H1926.21M1996.93 63.9028L1985.41 54.9028M2067.65 63.9028L2054.85 54.9028M2067.65 63.9028H2138.37M1963.56 37.8455H2030.58M1963.56 37.8455L1953.21 29.7563M1963.56 37.8455H1896.55M1963.56 37.8455L1974.29 46.2226M2030.58 37.8455L2021.91 31.7532L2020.49 30.752L2019.07 29.7563M2030.58 37.8455L2042.5 46.2226M2030.58 37.8455H2097.59M1953.21 29.7563H2019.07M1953.21 29.7563L1944.43 22.9034L1943.2 21.9411M1953.21 29.7563H1887.34M2019.07 29.7563H2084.93M2019.07 29.7563L2007.95 21.9411M2699.61 290.876L2664.58 271.937M2699.61 290.876H2596.59M2699.61 290.876L2720.15 301.986M2699.61 290.876H2720.15M2664.58 271.937H2564.26M2664.58 271.937L2631.34 253.964M2664.58 271.937H2720.15M2569.69 220.632H2662.71M2569.69 220.632L2541.05 205.15M2569.69 220.632H2476.67M2569.69 220.632L2599.75 236.884M2662.71 220.632L2631.87 205.15M2662.71 220.632L2695.08 236.884M2662.71 220.632H2720.15M2541.05 205.15H2631.87M2541.05 205.15H2450.24M2541.05 205.15L2513.74 190.385M2631.87 205.15L2602.46 190.385M2631.87 205.15H2720.15M2462.75 162.812H2547.54M2462.75 162.812L2438.9 149.921M2462.75 162.812H2377.96M2462.75 162.812L2487.67 176.287M2547.54 162.812L2521.86 149.921M2547.54 162.812L2574.38 176.287M2547.54 162.812H2632.33M2438.9 149.921H2521.86M2438.9 149.921H2355.94M2438.9 149.921L2416.07 137.575M2521.86 149.921L2497.27 137.575M2521.86 149.921H2604.82M2373.18 114.388H2451.09M2373.18 114.388L2353.02 103.487M2373.18 114.388H2295.28M2373.18 114.388L2394.18 125.741M2451.09 114.388L2429.38 103.487M2451.09 114.388L2473.7 125.741M2451.09 114.388H2528.99M2353.02 103.487H2429.38M2353.02 103.487H2276.67M2353.02 103.487L2333.65 93.0111M2429.38 103.487L2408.51 93.0111M2429.38 103.487H2505.73M2297.08 73.2408H2369.13M2297.08 73.2408L2279.81 63.9028M2297.08 73.2408H2225.03M2297.08 73.2408L2315.02 82.9361M2369.13 73.2408L2350.53 63.9028M2369.13 73.2408L2388.44 82.9361M2369.13 73.2408H2441.18M2279.81 63.9028H2350.53M2279.81 63.9028H2209.09M2279.81 63.9028L2263.17 54.9028M2350.53 63.9028L2332.61 54.9028M2350.53 63.9028H2421.25M2231.62 37.8455H2298.63M2231.62 37.8455L2216.66 29.7563M2231.62 37.8455H2164.61M2231.62 37.8455L2247.11 46.2226M2298.63 37.8455L2282.52 29.7563M2298.63 37.8455L2315.32 46.2226M2298.63 37.8455H2365.65M2216.66 29.7563H2282.52M2216.66 29.7563L2202.2 21.9411M2216.66 29.7563H2150.8M2282.52 29.7563H2348.38M2282.52 29.7563L2266.95 21.9411M2684.8 114.388L2658.43 103.487M2684.8 114.388H2606.9M2684.8 114.388L2712.26 125.741M2684.8 114.388H2720.15M2658.43 103.487H2582.08M2658.43 103.487L2633.1 93.0111M2658.43 103.487H2720.15M2585.28 73.2408H2657.33M2585.28 73.2408L2562.69 63.9028M2585.28 73.2408H2513.23M2585.28 73.2408L2608.73 82.9361M2657.33 73.2408L2633.42 63.9028M2657.33 73.2408L2682.16 82.9361M2657.33 73.2408H2720.15M2562.69 63.9028H2633.42M2562.69 63.9028H2491.97M2562.69 63.9028L2540.93 54.9028M2633.42 63.9028L2610.37 54.9028M2633.42 63.9028H2704.14M2499.67 37.8455H2566.69M2499.67 37.8455L2480.11 29.7563M2499.67 37.8455H2432.66M2499.67 37.8455L2519.93 46.2226M2566.69 37.8455L2545.97 29.7563M2566.69 37.8455L2588.14 46.2226M2566.69 37.8455H2633.7M2480.11 29.7563H2545.97M2480.11 29.7563L2461.21 21.9411M2480.11 29.7563H2414.25M2545.97 29.7563H2611.84M2545.97 29.7563L2525.96 21.9411M2588.14 46.2226L2610.37 54.9028M2588.14 46.2226H2656.34M2588.14 46.2226H2519.93M2633.7 37.8455L2611.84 29.7563M2633.7 37.8455L2656.34 46.2226M2633.7 37.8455H2700.71M2611.84 29.7563H2677.7M2611.84 29.7563L2590.71 21.9411M2525.96 21.9411H2461.21M2525.96 21.9411H2590.71M2525.96 21.9411L2506.61 14.3845M2656.34 46.2226L2679.81 54.9028M2656.34 46.2226H2720.15M2700.71 37.8455L2677.7 29.7563M2700.71 37.8455L2720.15 44.677M2700.71 37.8455H2720.15M2677.7 29.7563L2655.46 21.9411M2677.7 29.7563H2720.15M2590.71 21.9411H2655.46M2590.71 21.9411L2570.28 14.3845M2655.46 21.9411L2633.96 14.3845M2655.46 21.9411H2720.15M2610.37 54.9028H2679.81M2610.37 54.9028H2540.93M2704.14 63.9028L2679.81 54.9028M2704.14 63.9028L2720.15 69.827M2704.14 63.9028H2720.15M2679.81 54.9028H2720.15M2540.93 54.9028H2471.49M2540.93 54.9028L2519.93 46.2226M2519.93 46.2226H2451.73M2682.16 82.9361L2707.96 93.0111M2682.16 82.9361H2608.73M2682.16 82.9361H2720.15M2720.37 73.2408H2720.15M2707.96 93.0111H2633.1M2707.96 93.0111L2720.15 97.7726M2707.96 93.0111H2720.15M2633.1 93.0111H2558.23M2633.1 93.0111L2608.73 82.9361M2608.73 82.9361H2535.3M2315.32 46.2226L2332.61 54.9028M2315.32 46.2226H2383.52M2315.32 46.2226H2247.11M2365.65 37.8455L2348.38 29.7563M2365.65 37.8455L2383.52 46.2226M2365.65 37.8455H2432.66M2348.38 29.7563H2414.25M2348.38 29.7563L2331.7 21.9411M2266.95 21.9411H2331.7M2266.95 21.9411L2251.9 14.3845M2266.95 21.9411H2202.2M2383.52 46.2226L2402.05 54.9028M2383.52 46.2226H2451.73M2432.66 37.8455L2414.25 29.7563M2432.66 37.8455L2451.73 46.2226M2414.25 29.7563L2396.46 21.9411M2331.7 21.9411H2396.46M2331.7 21.9411L2315.58 14.3845M2451.73 46.2226L2471.49 54.9028M2461.21 21.9411H2396.46M2461.21 21.9411L2442.93 14.3845M2396.46 21.9411L2379.25 14.3845M2332.61 54.9028H2402.05M2332.61 54.9028H2263.17M2421.25 63.9028L2402.05 54.9028M2421.25 63.9028L2441.18 73.2408M2421.25 63.9028H2491.97M2402.05 54.9028H2471.49M2263.17 54.9028H2193.73M2263.17 54.9028L2247.11 46.2226M2471.49 54.9028L2491.97 63.9028M2247.11 46.2226H2178.91M2441.18 73.2408L2461.87 82.9361M2441.18 73.2408H2513.23M2491.97 63.9028L2513.23 73.2408M2513.23 73.2408L2535.3 82.9361M2388.44 82.9361L2408.51 93.0111M2388.44 82.9361H2461.87M2388.44 82.9361H2315.02M2461.87 82.9361L2483.37 93.0111M2461.87 82.9361H2535.3M2535.3 82.9361L2558.23 93.0111M2408.51 93.0111H2483.37M2408.51 93.0111H2333.65M2505.73 103.487L2483.37 93.0111M2505.73 103.487L2528.99 114.388M2505.73 103.487H2582.08M2483.37 93.0111H2558.23M2333.65 93.0111H2258.79M2333.65 93.0111L2315.02 82.9361M2558.23 93.0111L2582.08 103.487M2315.02 82.9361H2241.59M2528.99 114.388L2553.22 125.741M2528.99 114.388H2606.9M2582.08 103.487L2606.9 114.388M2606.9 114.388L2632.74 125.741M2473.7 125.741L2497.27 137.575M2473.7 125.741H2553.22M2473.7 125.741H2394.18M2553.22 125.741L2578.47 137.575M2553.22 125.741H2632.74M2632.74 125.741L2659.68 137.575M2632.74 125.741H2712.26M2712.26 125.741H2720.15M2712.26 125.741L2720.15 129.005M2497.27 137.575H2578.47M2497.27 137.575H2416.07M2604.82 149.921L2578.47 137.575M2604.82 149.921L2632.33 162.812M2604.82 149.921H2687.78M2578.47 137.575H2659.68M2416.07 137.575H2334.87M2416.07 137.575L2394.18 125.741M2659.68 137.575L2687.78 149.921M2659.68 137.575H2720.15M2394.18 125.741H2314.67M2632.33 162.812L2661.09 176.287M2632.33 162.812H2717.13M2687.78 149.921L2717.13 162.812M2687.78 149.921H2720.15M2720.58 137.575H2720.15M2717.13 162.812L2720.15 164.142M2717.13 162.812H2720.15M2574.38 176.287L2602.46 190.385M2574.38 176.287H2661.09M2574.38 176.287H2487.67M2661.09 176.287L2691.17 190.385M2661.09 176.287H2720.15M2720.89 164.464L2720.15 164.142M2602.46 190.385H2691.17M2602.46 190.385H2513.74M2691.17 190.385H2720.15M2691.17 190.385L2720.15 203.964M2513.74 190.385H2425.03M2513.74 190.385L2487.67 176.287M2487.67 176.287H2400.96M2695.08 236.884H2599.75M2695.08 236.884L2720.15 249.474M2695.08 236.884H2720.15M2720.84 220.632H2720.15M2599.75 236.884H2504.41M2599.75 236.884L2631.34 253.964M2720.43 249.612L2720.15 249.474M2042.5 46.2226L2054.85 54.9028M2042.5 46.2226H2110.7M2042.5 46.2226H1974.29M2097.59 37.8455L2084.93 29.7563M2097.59 37.8455L2110.7 46.2226M2097.59 37.8455H2164.61M2084.93 29.7563H2150.8M2084.93 29.7563L2072.7 21.9411M2007.95 21.9411H2072.7M2007.95 21.9411L2003.88 19.0778L1997.2 14.3845M2007.95 21.9411H1943.2M2110.7 46.2226L2124.29 54.9028M2110.7 46.2226H2178.91M2164.61 37.8455L2150.8 29.7563M2164.61 37.8455L2178.91 46.2226M2150.8 29.7563L2137.45 21.9411M2072.7 21.9411H2137.45M2072.7 21.9411L2060.88 14.3845M2178.91 46.2226L2193.73 54.9028M2202.2 21.9411L2188.23 14.3845M2202.2 21.9411H2137.45M2137.45 21.9411L2135.82 20.9815L2132.56 19.0778L2124.55 14.3845M2054.85 54.9028H2124.29M2054.85 54.9028H1985.41M2138.37 63.9028L2124.29 54.9028M2138.37 63.9028L2152.98 73.2408M2138.37 63.9028H2209.09M2124.29 54.9028H2193.73M1985.41 54.9028H1915.97M1985.41 54.9028L1974.29 46.2226M2193.73 54.9028L2209.09 63.9028M1974.29 46.2226H1906.08M2152.98 73.2408L2168.16 82.9361M2152.98 73.2408H2225.03M2209.09 63.9028L2211.05 65.0501L2225.03 73.2408M2225.03 73.2408L2241.59 82.9361M2094.73 82.9361L2096.49 84.1752L2109.06 93.0111M2094.73 82.9361H2168.16M2094.73 82.9361H2021.3M2168.16 82.9361L2183.92 93.0111M2168.16 82.9361H2241.59M2241.59 82.9361L2258.79 93.0111M2109.06 93.0111H2183.92M2109.06 93.0111H2034.2M2200.32 103.487L2183.92 93.0111M2200.32 103.487L2217.38 114.388M2200.32 103.487H2276.67M2183.92 93.0111H2258.79M2034.2 93.0111H1959.34M2034.2 93.0111L2021.3 82.9361M2258.79 93.0111L2276.67 103.487M2021.3 82.9361H1947.87M2217.38 114.388L2235.15 125.741M2217.38 114.388H2295.28M2276.67 103.487L2295.28 114.388M2295.28 114.388L2314.67 125.741M2155.63 125.741L2172.46 137.575M2155.63 125.741H2235.15M2155.63 125.741H2076.11M2235.15 125.741L2253.67 137.575M2235.15 125.741H2314.67M2314.67 125.741L2334.87 137.575M2172.46 137.575H2253.67M2172.46 137.575H2091.26M2272.99 149.921L2253.67 137.575M2272.99 149.921L2293.16 162.812M2272.99 149.921H2355.94M2253.67 137.575H2334.87M2091.26 137.575H2010.06M2091.26 137.575L2076.11 125.741M2334.87 137.575L2355.94 149.921M2076.11 125.741H1996.59M2293.16 162.812L2314.25 176.287M2293.16 162.812H2377.96M2355.94 149.921L2377.96 162.812M2377.96 162.812L2400.96 176.287M2227.54 176.287L2247.6 190.385M2227.54 176.287H2314.25M2227.54 176.287H2140.83M2314.25 176.287L2336.31 190.385M2314.25 176.287H2400.96M2400.96 176.287L2425.03 190.385M2247.6 190.385H2336.31M2247.6 190.385H2158.88M2359.42 205.15L2336.31 190.385M2359.42 205.15L2383.65 220.632M2359.42 205.15H2450.24M2336.31 190.385H2425.03M2158.88 190.385H2070.17M2158.88 190.385L2140.83 176.287M2425.03 190.385L2450.24 205.15M2140.83 176.287H2054.12M2383.65 220.632L2409.08 236.884M2383.65 220.632H2476.67M2450.24 205.15L2476.67 220.632M2476.67 220.632L2504.41 236.884M2313.75 236.884L2338.05 253.964M2313.75 236.884H2409.08M2313.75 236.884H2218.42M2409.08 236.884L2435.81 253.964M2409.08 236.884H2504.41M2504.41 236.884L2533.57 253.964M2338.05 253.964H2435.81M2338.05 253.964H2240.29M2463.94 271.937L2435.81 253.964M2463.94 271.937L2493.58 290.876M2463.94 271.937H2564.26M2435.81 253.964H2533.57M2240.29 253.964H2142.53M2240.29 253.964L2218.42 236.884M2533.57 253.964L2564.26 271.937M2533.57 253.964H2631.34M2218.42 236.884H2123.09M2493.58 290.876L2524.86 310.862M2493.58 290.876H2596.59M2564.26 271.937L2596.59 290.876M2631.34 253.964H2720.15M2596.59 290.876L2630.71 310.862M2419 310.862L2449.05 331.98M2419 310.862H2524.86M2419 310.862H2313.15M2524.86 310.862L2557.91 331.98M2524.86 310.862H2630.71M2630.71 310.862L2666.77 331.98M2630.71 310.862H2720.15M2449.05 331.98H2557.91M2449.05 331.98H2340.19M2592.89 354.334L2557.91 331.98M2592.89 354.334L2629.98 378.031M2592.89 354.334H2704.93M2557.91 331.98H2666.77M2340.19 331.98H2231.33M2340.19 331.98L2313.15 310.862M2666.77 331.98L2704.93 354.334M2666.77 331.98H2720.15M2313.15 310.862H2207.29M2629.98 378.031L2669.37 403.201M2629.98 378.031H2720.15M2704.93 354.334H2720.15M2704.93 354.334L2720.15 363.25M2550.37 403.201L2588.47 429.982M2550.37 403.201H2669.37M2550.37 403.201H2431.38M2669.37 403.201L2711.28 429.982M2669.37 403.201H2720.15M2588.47 429.982H2711.28M2588.47 429.982H2465.67M2711.28 429.982L2720.15 435.653M2711.28 429.982H2720.15M2465.67 429.982H2342.87M2465.67 429.982L2431.38 403.201M2431.38 403.201H2312.39M2718.97 521.707H2583.12M2718.97 521.707H2720.15M2718.97 521.707L2720.15 522.536M2583.12 521.707H2447.27M2583.12 521.707L2628.02 556.774M1769.67 46.2226L1772.42 49.4404L1773.35 50.5238L1777.08 54.9028M1769.67 46.2226H1837.88M1769.67 46.2226H1701.47M1829.54 37.8455L1823.47 31.7532L1821.48 29.7563M1829.54 37.8455L1836.82 45.1588L1837.88 46.2226M1829.54 37.8455H1896.55M1821.48 29.7563H1887.34M1821.48 29.7563L1813.7 21.9411M1748.95 21.9411H1813.7M1748.95 21.9411L1746.5 19.0778L1742.5 14.3845M1748.95 21.9411H1684.2M1837.88 46.2226L1840.01 48.3627L1846.53 54.9028M1837.88 46.2226H1906.08M1896.55 37.8455L1887.34 29.7563M1896.55 37.8455L1906.08 46.2226M1887.34 29.7563L1880.64 23.8698L1878.45 21.9411M1813.7 21.9411H1878.45M1813.7 21.9411L1806.17 14.3845M1906.08 46.2226L1915.97 54.9028M1943.2 21.9411L1941.97 20.9815L1933.52 14.3845M1943.2 21.9411H1878.45M1878.45 21.9411L1875.19 19.0778L1869.85 14.3845M1777.08 54.9028H1846.53M1777.08 54.9028H1707.64M1855.49 63.9028L1846.53 54.9028M1855.49 63.9028L1864.79 73.2408M1855.49 63.9028H1926.21M1846.53 54.9028H1915.97M1707.64 54.9028H1638.2M1707.64 54.9028L1701.47 46.2226M1915.97 54.9028L1926.21 63.9028M1701.47 46.2226H1633.26M1864.79 73.2408L1870.78 79.258L1872 80.4775L1874.44 82.9361M1864.79 73.2408H1936.84M1926.21 63.9028L1936.84 73.2408M1936.84 73.2408L1947.87 82.9361M1801.01 82.9361L1809.61 93.0111M1801.01 82.9361H1874.44M1801.01 82.9361H1727.59M1874.44 82.9361L1884.48 93.0111M1874.44 82.9361H1947.87M1947.87 82.9361L1959.34 93.0111M1809.61 93.0111H1884.48M1809.61 93.0111H1734.75M1894.91 103.487L1888.34 96.8909L1887.05 95.5907L1884.48 93.0111M1894.91 103.487L1905.77 114.388M1894.91 103.487H1971.26M1884.48 93.0111H1959.34M1734.75 93.0111H1659.89M1734.75 93.0111L1727.59 82.9361M1959.34 93.0111L1971.26 103.487M1727.59 82.9361H1654.16M1905.77 114.388L1917.07 125.741M1905.77 114.388H1983.67M1971.26 103.487L1983.67 114.388M1983.67 114.388L1996.59 125.741M1837.55 125.741L1842.55 131.595L1843.82 133.079L1847.66 137.575M1837.55 125.741H1917.07M1837.55 125.741H1758.03M1917.07 125.741L1928.86 137.575M1917.07 125.741H1996.59M1996.59 125.741L2010.06 137.575M1847.66 137.575H1928.86M1847.66 137.575H1766.45M1941.15 149.921L1928.86 137.575M1941.15 149.921L1953.99 162.812M1941.15 149.921H2024.11M1928.86 137.575H2010.06M1766.45 137.575H1685.25M1766.45 137.575L1764.31 134.57L1758.03 125.741M2010.06 137.575L2024.11 149.921M1758.03 125.741H1678.52M1953.99 162.812L1967.41 176.287M1953.99 162.812H2038.78M2024.11 149.921L2038.78 162.812M2038.78 162.812L2054.12 176.287M1880.7 176.287L1892.74 190.385M1880.7 176.287H1967.41M1880.7 176.287H1793.99M1967.41 176.287L1981.45 190.385M1967.41 176.287H2054.12M2054.12 176.287L2070.17 190.385M1892.74 190.385H1981.45M1892.74 190.385H1804.02M1996.16 205.15L1981.45 190.385M1996.16 205.15L2011.57 220.632M1996.16 205.15H2086.97M1981.45 190.385H2070.17M1804.02 190.385H1715.3M1804.02 190.385L1793.99 176.287M2070.17 190.385L2086.97 205.15M1793.99 176.287H1707.28M2011.57 220.632L2027.76 236.884M2011.57 220.632H2104.59M2086.97 205.15L2104.59 220.632M2104.59 220.632L2123.09 236.884M1932.43 236.884L1947.01 253.964M1932.43 236.884H2027.76M1932.43 236.884H1837.1M2027.76 236.884L2044.77 253.964M2027.76 236.884H2123.09M2123.09 236.884L2142.53 253.964M1947.01 253.964H2044.77M1947.01 253.964H1849.25M2062.67 271.937L2044.77 253.964M2062.67 271.937L2081.53 290.876M2062.67 271.937H2162.99M2044.77 253.964H2142.53M1849.25 253.964H1751.49M1849.25 253.964L1837.1 236.884M2142.53 253.964L2162.99 271.937M1837.1 236.884H1741.77M2081.53 290.876L2101.43 310.862M2081.53 290.876H2184.54M2162.99 271.937L2184.54 290.876M2184.54 290.876L2207.29 310.862M1995.58 310.862L2013.61 331.98M1995.58 310.862H2101.43M1995.58 310.862H1889.72M2101.43 310.862L2122.47 331.98M2101.43 310.862H2207.29M2207.29 310.862L2231.33 331.98M2013.61 331.98H2122.47M2013.61 331.98H1904.74M2144.73 354.334L2122.47 331.98M2144.73 354.334L2168.33 378.031M2144.73 354.334H2256.77M2122.47 331.98H2231.33M1904.74 331.98H1795.88M1904.74 331.98L1889.72 310.862M2231.33 331.98L2256.77 354.334M1889.72 310.862H1783.87M2168.33 378.031L2193.39 403.201M2168.33 378.031H2283.74M2256.77 354.334L2283.74 378.031M2283.74 378.031L2312.39 403.201M2074.4 403.201L2097.26 429.982M2074.4 403.201H2193.39M2074.4 403.201H1955.41M2193.39 403.201L2220.06 429.982M2193.39 403.201H2312.39M2312.39 403.201L2342.87 429.982M2097.26 429.982H2220.06M2097.26 429.982H1974.46M2248.5 458.534L2220.06 429.982M2248.5 458.534L2278.88 489.04M2248.5 458.534H2375.37M2220.06 429.982H2342.87M1974.46 429.982H1851.66M1974.46 429.982L1955.41 403.201M2342.87 429.982L2375.37 458.534M1955.41 403.201H1836.42M2278.88 489.04L2311.41 521.707M2278.88 489.04H2410.09M2375.37 458.534L2410.09 489.04M2410.09 489.04L2447.27 521.707M2175.56 521.707L2205.49 556.774M2175.56 521.707H2311.41M2175.56 521.707H2039.71M2311.41 521.707L2346.34 556.774M2311.41 521.707H2447.27M2447.27 521.707L2487.18 556.774M2205.49 556.774H2346.34M2205.49 556.774H2064.65M2383.92 594.513L2346.34 556.774M2383.92 594.513L2424.49 635.246M2383.92 594.513H2530.13M2346.34 556.774H2487.18M2064.65 556.774H1923.81M2064.65 556.774L2039.71 521.707M2487.18 556.774L2530.13 594.513M2487.18 556.774H2628.02M2039.71 521.707H1903.86M2424.49 635.246L2468.4 679.34M2424.49 635.246H2576.49M2530.13 594.513L2576.49 635.246M2628.02 556.774H2720.15M2576.49 635.246L2626.68 679.34M2576.49 635.246H2720.15M2310.12 679.34L2351 727.229M2310.12 679.34H2468.4M2310.12 679.34H2151.84M2468.4 679.34L2516.09 727.229M2468.4 679.34H2626.68M2626.68 679.34L2681.19 727.229M2626.68 679.34H2720.15M2351 727.229H2516.09M2351 727.229H2185.91M2568.08 779.428L2516.09 727.229M2568.08 779.428L2624.96 836.543M2568.08 779.428H2720.15M2516.09 727.229H2681.19M2185.91 727.229H2020.81M2185.91 727.229L2151.84 679.34M2681.19 727.229H2720.15M2681.19 727.229L2720.15 761.466M2151.84 679.34H1993.56M2624.96 836.543L2687.46 899.305M2624.96 836.543H2720.15M2497.89 899.305L2557.04 968.595M2497.89 899.305H2687.46M2497.89 899.305H2308.32M2687.46 899.305L2720.15 932.131M2687.46 899.305H2720.15M2720.15 968.594L2557.04 968.595H2357.6M2357.6 968.595H2158.17M2357.6 968.595L2308.32 899.305M2308.32 899.305H2118.74M1496.85 46.2226L1497.16 47.2906L1497.46 48.3627L1497.77 49.4404L1498.08 50.5238L1499.01 53.8L1499.32 54.9028M1496.85 46.2226H1565.06M1496.85 46.2226H1428.65M1561.48 37.8455L1558.88 31.7532L1558.03 29.7563M1561.48 37.8455L1563.7 43.0464L1565.06 46.2226M1561.48 37.8455H1628.5M1558.03 29.7563H1623.89M1558.03 29.7563L1555.52 23.8698L1554.69 21.9411M1489.94 21.9411L1489.67 20.9815L1488.59 17.188L1487.79 14.3845M1489.94 21.9411H1554.69M1489.94 21.9411H1425.19M1565.06 46.2226L1565.51 47.2906L1565.97 48.3627L1566.43 49.4404L1566.89 50.5238L1568.76 54.9028M1565.06 46.2226H1633.26M1628.5 37.8455L1625.03 31.7532L1623.89 29.7563M1628.5 37.8455L1633.26 46.2226M1623.89 29.7563L1621.65 25.8153L1619.99 22.9034L1619.45 21.9411M1554.69 21.9411L1554.29 20.9815L1553.47 19.0778L1552.67 17.188L1552.27 16.2493L1551.47 14.3845M1554.69 21.9411H1619.45M1633.26 46.2226L1636.95 52.7028L1638.2 54.9028M1684.2 21.9411L1680.15 16.2493L1678.82 14.3845M1684.2 21.9411H1619.45M1619.45 21.9411L1615.68 15.3148L1615.14 14.3845M1499.32 54.9028H1568.76M1499.32 54.9028H1429.88M1572.6 63.9028L1568.76 54.9028M1572.6 63.9028L1576.59 73.2408M1572.6 63.9028H1643.32M1568.76 54.9028H1638.2M1429.88 54.9028H1360.44M1429.88 54.9028L1428.65 46.2226M1638.2 54.9028L1643.32 63.9028M1428.65 46.2226H1360.44M1576.59 73.2408L1577.61 75.6299L1579.16 79.258L1580.73 82.9361M1576.59 73.2408H1648.64M1643.32 63.9028L1643.98 65.0501L1648.64 73.2408M1648.64 73.2408L1649.32 74.4326L1650 75.6299L1650.68 76.8341L1654.16 82.9361M1507.3 82.9361L1510.17 93.0111M1507.3 82.9361H1580.73M1507.3 82.9361H1433.87M1580.73 82.9361L1585.03 93.0111M1580.73 82.9361H1654.16M1654.16 82.9361L1658.44 90.4552L1659.16 91.7304L1659.89 93.0111M1510.17 93.0111H1585.03M1510.17 93.0111H1435.3M1589.5 103.487L1590.07 104.826L1590.65 106.171L1591.22 107.524L1594.15 114.388M1589.5 103.487L1587.24 98.1967L1586.68 96.8909L1586.13 95.5907L1585.03 93.0111M1589.5 103.487H1665.85M1585.03 93.0111H1659.89M1435.3 93.0111H1360.44M1435.3 93.0111L1433.87 82.9361M1659.89 93.0111L1665.85 103.487M1433.87 82.9361H1360.44M1594.15 114.388L1598.38 124.296L1599 125.741M1594.15 114.388H1672.06M1665.85 103.487L1667.38 106.171L1672.06 114.388M1672.06 114.388L1674.45 118.59L1678.52 125.741M1519.48 125.741L1521.15 131.595L1521.57 133.079L1522.85 137.575M1519.48 125.741H1599M1519.48 125.741H1439.96M1599 125.741L1604.05 137.575M1599 125.741H1678.52M1678.52 125.741L1685.25 137.575M1522.85 137.575H1604.05M1522.85 137.575H1441.64M1609.32 149.921L1604.05 137.575M1609.32 149.921L1614.82 162.812M1609.32 149.921H1692.28M1604.05 137.575H1685.25M1441.64 137.575H1360.44M1441.64 137.575L1441.22 134.57L1440.38 128.653L1439.96 125.741M1685.25 137.575L1692.28 149.921M1439.96 125.741H1360.44M1614.82 162.812L1619.11 172.862L1620.57 176.287M1614.82 162.812H1699.61M1692.28 149.921L1699.61 162.812M1699.61 162.812L1703.4 169.474L1707.28 176.287M1533.86 176.287L1537.87 190.385M1533.86 176.287H1620.57M1533.86 176.287H1447.15M1620.57 176.287L1626.59 190.385M1620.57 176.287H1707.28M1707.28 176.287L1715.3 190.385M1537.87 190.385H1626.59M1537.87 190.385H1449.16M1632.89 205.15L1631.29 201.394L1626.59 190.385M1632.89 205.15L1639.5 220.632M1632.89 205.15H1723.71M1626.59 190.385H1715.3M1449.16 190.385H1360.44M1449.16 190.385L1447.15 176.287M1715.3 190.385L1723.71 205.15M1447.15 176.287H1360.44M1639.5 220.632L1646.44 236.884M1639.5 220.632H1732.52M1723.71 205.15L1732.52 220.632M1732.52 220.632L1741.77 236.884M1551.11 236.884L1555.96 253.964M1551.11 236.884H1646.44M1551.11 236.884H1455.77M1646.44 236.884L1653.73 253.964M1646.44 236.884H1741.77M1741.77 236.884L1751.49 253.964M1555.96 253.964H1653.73M1555.96 253.964H1458.2M1661.4 271.937L1653.73 253.964M1661.4 271.937L1669.48 290.876M1661.4 271.937H1761.71M1653.73 253.964H1751.49M1458.2 253.964H1360.44M1458.2 253.964L1456.07 238.973L1455.77 236.884M1751.49 253.964L1761.71 271.937M1455.77 236.884H1360.44M1669.48 290.876L1678.01 310.862M1669.48 290.876H1772.49M1761.71 271.937L1769.74 286.048L1772.49 290.876M1772.49 290.876L1783.87 310.862M1572.15 310.862L1578.16 331.98M1572.15 310.862H1678.01M1572.15 310.862H1466.3M1678.01 310.862L1687.02 331.98M1678.01 310.862H1783.87M1783.87 310.862L1795.88 331.98M1578.16 331.98H1687.02M1578.16 331.98H1469.3M1696.56 354.334L1687.02 331.98M1696.56 354.334L1706.68 378.031M1696.56 354.334H1808.6M1687.02 331.98H1795.88M1469.3 331.98H1360.44M1469.3 331.98L1466.3 310.862M1795.88 331.98L1808.6 354.334M1466.3 310.862H1360.44M1706.68 378.031L1717.42 403.201M1706.68 378.031H1822.09M1808.6 354.334L1822.09 378.031M1822.09 378.031L1836.42 403.201M1598.43 403.201L1606.05 429.982M1598.43 403.201H1717.42M1598.43 403.201H1479.44M1717.42 403.201L1728.85 429.982M1717.42 403.201H1836.42M1836.42 403.201L1851.66 429.982M1606.05 429.982H1728.85M1606.05 429.982H1483.25M1741.04 458.534L1728.85 429.982M1741.04 458.534L1754.06 489.04M1741.04 458.534H1867.9M1728.85 429.982H1851.66M1483.25 429.982H1360.44M1483.25 429.982L1479.44 403.201M1851.66 429.982L1867.9 458.534M1479.44 403.201H1360.44M1754.06 489.04L1768 521.707M1754.06 489.04H1885.26M1867.9 458.534L1885.26 489.04M1885.26 489.04L1903.86 521.707M1632.15 521.707L1642.13 556.774M1632.15 521.707H1768M1632.15 521.707H1496.3M1768 521.707L1782.97 556.774M1768 521.707H1903.86M1903.86 521.707L1923.81 556.774M1642.13 556.774H1782.97M1642.13 556.774H1501.28M1799.08 594.513L1782.97 556.774M1799.08 594.513L1816.46 635.246M1799.08 594.513H1945.29M1782.97 556.774H1923.81M1501.28 556.774H1360.44M1501.28 556.774L1496.3 521.707M1923.81 556.774L1945.29 594.513M1496.3 521.707H1360.44M1816.46 635.246L1835.28 679.34M1816.46 635.246H1968.47M1945.29 594.513L1968.47 635.246M1968.47 635.246L1993.56 679.34M1677 679.34L1690.63 727.229M1677 679.34H1835.28M1677 679.34H1518.72M1835.28 679.34L1855.72 727.229M1835.28 679.34H1993.56M1993.56 679.34L2020.81 727.229M1690.63 727.229H1855.72M1690.63 727.229H1525.54M1878 779.428L1855.72 727.229M1878 779.428L1902.38 836.543M1878 779.428H2050.52M1855.72 727.229H2020.81M1525.54 727.229H1360.44M1525.54 727.229L1518.72 679.34M2020.81 727.229L2050.52 779.428M1518.72 679.34H1360.44M1902.38 836.543L1929.17 899.305M1902.38 836.543H2083.02M2050.52 779.428L2083.02 836.543M2083.02 836.543L2118.74 899.305M1739.59 899.305L1759.31 968.595M1739.59 899.305H1929.17M1739.59 899.305H1550.02M1929.17 899.305L1958.74 968.595M1929.17 899.305H2118.74M2118.74 899.305L2158.17 968.595M1958.74 968.595H1759.31M1958.74 968.595H2158.17M1759.31 968.595H1559.88M1559.88 968.595H1360.44M1559.88 968.595L1550.02 899.305M1550.02 899.305H1360.44M1224.03 46.2226L1223.73 47.2906L1223.42 48.3627L1223.12 49.4404L1222.81 50.5238L1222.19 52.7028L1221.88 53.8L1221.56 54.9028M1224.03 46.2226H1292.24M1224.03 46.2226H1155.83M1293.43 37.8455L1294.58 29.7563M1293.43 37.8455L1292.24 46.2226M1293.43 37.8455H1360.44M1294.58 29.7563L1294.72 28.7648L1294.86 27.7775L1295 26.7943L1295.69 21.9411M1294.58 29.7563H1360.44M1230.94 21.9411L1231.21 20.9815L1232.29 17.188L1233.09 14.3845M1230.94 21.9411H1295.69M1230.94 21.9411H1166.19M1292.24 46.2226L1292.08 47.2906L1291.93 48.3627L1291.78 49.4404L1291 54.9028M1292.24 46.2226H1360.44M1360.44 37.8455V29.7563M1360.44 37.8455V46.2226M1360.44 29.7563V21.9411M1295.69 21.9411H1360.44M1295.69 21.9411L1296.1 19.0778L1296.23 18.1308L1296.77 14.3845M1360.44 46.2226V54.9028M1425.19 21.9411L1424.79 19.0778L1424.65 18.1308L1424.52 17.188L1424.38 16.2493L1424.25 15.3148L1424.12 14.3845M1425.19 21.9411H1360.44M1360.44 21.9411V14.3845M1221.56 54.9028H1291M1221.56 54.9028H1152.12M1289.72 63.9028L1289.56 65.0501L1289.4 66.2043L1288.39 73.2408M1289.72 63.9028L1291 54.9028M1289.72 63.9028H1360.44M1291 54.9028H1360.44M1152.12 54.9028H1082.68M1152.12 54.9028L1153.06 52.7028L1153.53 51.6112L1153.99 50.5238L1154.45 49.4404L1154.91 48.3627L1155.37 47.2906L1155.83 46.2226M1360.44 54.9028V63.9028M1155.83 46.2226H1087.62M1288.39 73.2408L1287.01 82.9361M1288.39 73.2408H1360.44M1360.44 63.9028V73.2408M1360.44 73.2408V82.9361M1213.59 82.9361L1210.72 93.0111M1213.59 82.9361H1287.01M1213.59 82.9361H1140.16M1287.01 82.9361L1285.58 93.0111M1287.01 82.9361H1360.44M1360.44 82.9361V93.0111M1210.72 93.0111H1285.58M1210.72 93.0111H1135.86M1284.09 103.487L1285.58 93.0111M1284.09 103.487L1282.54 114.388M1284.09 103.487H1360.44M1285.58 93.0111H1360.44M1135.86 93.0111H1060.99M1135.86 93.0111L1140.16 82.9361M1360.44 93.0111V103.487M1140.16 82.9361H1066.73M1282.54 114.388L1281.94 118.59L1281.33 122.858L1280.92 125.741M1282.54 114.388H1360.44M1360.44 103.487V114.388M1360.44 114.388V125.741M1201.41 125.741L1199.74 131.595L1199.32 133.079L1198.04 137.575M1201.41 125.741H1280.92M1201.41 125.741H1121.89M1280.92 125.741L1280.51 128.653L1279.67 134.57L1279.24 137.575M1280.92 125.741H1360.44M1360.44 125.741V137.575M1198.04 137.575H1279.24M1198.04 137.575H1116.84M1277.48 149.921L1277.71 148.348L1279.24 137.575M1277.48 149.921L1275.65 162.812M1277.48 149.921H1360.44M1279.24 137.575H1360.44M1116.84 137.575H1035.63M1116.84 137.575L1121.89 125.741M1360.44 137.575V149.921M1121.89 125.741H1042.37M1275.65 162.812L1273.73 176.287M1275.65 162.812H1360.44M1360.44 149.921V162.812M1360.44 162.812V176.287M1187.02 176.287L1183.01 190.385M1187.02 176.287H1273.73M1187.02 176.287H1100.31M1273.73 176.287L1271.73 190.385M1273.73 176.287H1360.44M1360.44 176.287V190.385M1183.01 190.385H1271.73M1183.01 190.385H1094.3M1269.63 205.15L1271.73 190.385M1269.63 205.15L1267.42 220.632M1269.63 205.15H1360.44M1271.73 190.385H1360.44M1094.3 190.385H1005.58M1094.3 190.385L1100.31 176.287M1360.44 190.385V205.15M1100.31 176.287H1013.6M1267.42 220.632L1265.11 236.884M1267.42 220.632H1360.44M1360.44 205.15V220.632M1360.44 220.632V236.884M1169.78 236.884L1164.92 253.964M1169.78 236.884H1265.11M1169.78 236.884H1074.45M1265.11 236.884L1262.68 253.964M1265.11 236.884H1360.44M1360.44 236.884V253.964M1164.92 253.964H1262.68M1164.92 253.964H1067.16M1260.12 271.937L1262.68 253.964M1260.12 271.937L1257.43 290.876M1260.12 271.937H1360.44M1262.68 253.964H1360.44M1067.16 253.964H969.399M1067.16 253.964L1074.45 236.884M1360.44 253.964V271.937M1074.45 236.884H979.119M1257.43 290.876L1254.59 310.862M1257.43 290.876H1360.44M1360.44 271.937V290.876M1360.44 290.876V310.862M1148.73 310.862L1142.72 331.98M1148.73 310.862H1254.59M1148.73 310.862H1042.88M1254.59 310.862L1251.58 331.98M1254.59 310.862H1360.44M1360.44 310.862V331.98M1142.72 331.98H1251.58M1142.72 331.98H1033.86M1248.4 354.334L1251.58 331.98M1248.4 354.334L1245.03 378.031M1248.4 354.334H1360.44M1251.58 331.98H1360.44M1033.86 331.98H925.001M1033.86 331.98L1042.88 310.862M1360.44 331.98V354.334M1042.88 310.862H937.019M1245.03 378.031L1241.45 403.201M1245.03 378.031H1360.44M1360.44 354.334V378.031M1360.44 378.031V403.201M1122.46 403.201L1114.84 429.982M1122.46 403.201H1241.45M1122.46 403.201H1003.46M1241.45 403.201L1237.64 429.982M1241.45 403.201H1360.44M1360.44 403.201V429.982M1114.84 429.982H1237.64M1114.84 429.982H992.034M1233.58 458.534L1237.64 429.982M1233.58 458.534L1229.24 489.04M1233.58 458.534H1360.44M1237.64 429.982H1360.44M992.034 429.982H869.23M992.034 429.982L1003.46 403.201M1360.44 429.982V458.534M1003.46 403.201H884.47M1229.24 489.04L1224.59 521.707M1229.24 489.04H1360.44M1360.44 458.534V489.04M1360.44 489.04V521.707M1088.74 521.707L1078.76 556.774M1088.74 521.707H1224.59M1088.74 521.707H952.884M1224.59 521.707L1219.6 556.774M1224.59 521.707H1360.44M1360.44 521.707V556.774M1078.76 556.774H1219.6M1078.76 556.774H937.917M1214.23 594.513L1219.6 556.774M1214.23 594.513L1208.44 635.246M1214.23 594.513H1360.44M1219.6 556.774H1360.44M937.917 556.774H797.075M937.917 556.774L952.884 521.707M1360.44 556.774V594.513M952.884 521.707H817.03M1208.44 635.246L1202.16 679.34M1208.44 635.246H1360.44M1360.44 594.513V635.246M1360.44 635.246V679.34M1043.88 679.34L1030.26 727.229M1043.88 679.34H1202.16M1043.88 679.34H885.604M1202.16 679.34L1195.35 727.229M1202.16 679.34H1360.44M1360.44 679.34V727.229M1030.26 727.229H1195.35M1030.26 727.229H865.164M1187.92 779.428L1195.35 727.229M1187.92 779.428L1179.8 836.543M1187.92 779.428H1360.44M1195.35 727.229H1360.44M865.164 727.229H700.071M865.164 727.229L885.604 679.34M1360.44 727.229V779.428M885.604 679.34H727.325M1179.8 836.543L1170.87 899.305M1179.8 836.543H1360.44M1360.44 779.428V836.543M1360.44 836.543V899.305M981.295 899.305L961.579 968.595M981.295 899.305H1170.87M981.295 899.305H791.72M1170.87 899.305L1161.01 968.595M1170.87 899.305H1360.44M1360.44 899.305V968.595M1161.01 968.595H961.579M1161.01 968.595H1360.44M961.579 968.595H762.146M762.146 968.595H562.713M762.146 968.595L791.72 899.305M791.72 899.305H602.145M951.211 46.2226L947.54 50.5238L943.802 54.9028M951.211 46.2226H1019.42M951.211 46.2226H883.006M1025.37 37.8455L1031.13 29.7563M1025.37 37.8455L1019.42 46.2226M1025.37 37.8455H1092.39M1031.13 29.7563H1096.99M1031.13 29.7563L1035.32 23.8698L1036.69 21.9411M971.938 21.9411H1036.69M971.938 21.9411L974.383 19.0778L978.388 14.3845M971.938 21.9411H907.188M1019.42 46.2226L1013.24 54.9028M1019.42 46.2226H1087.62M1092.39 37.8455L1096.99 29.7563M1092.39 37.8455L1087.62 46.2226M1096.99 29.7563L1099.24 25.8153L1100.89 22.9034L1101.44 21.9411M1036.69 21.9411H1101.44M1036.69 21.9411L1040.74 16.2493L1042.06 14.3845M1087.62 46.2226L1083.93 52.7028L1082.68 54.9028M1166.19 21.9411L1166.6 20.9815L1167.41 19.0778L1168.62 16.2493L1169.42 14.3845M1166.19 21.9411H1101.44M1101.44 21.9411L1101.98 20.9815L1103.07 19.0778L1105.74 14.3845M943.802 54.9028H1013.24M943.802 54.9028H874.36M1006.84 63.9028L1007.65 62.7597L1008.46 61.6208L1011.66 57.1208L1013.24 54.9028M1006.84 63.9028L1001.88 70.8726L1000.2 73.2408M1006.84 63.9028H1077.56M1013.24 54.9028H1082.68M874.36 54.9028H804.92M874.36 54.9028L880.873 48.3627L883.006 46.2226M1082.68 54.9028L1077.56 63.9028M883.006 46.2226H814.799M1000.2 73.2408L999.349 74.4326L998.496 75.6299L995.917 79.258L995.048 80.4775L993.3 82.9361M1000.2 73.2408H1072.25M1077.56 63.9028L1076.91 65.0501L1072.25 73.2408M1072.25 73.2408L1071.57 74.4326L1070.89 75.6299L1070.2 76.8341L1066.73 82.9361M919.871 82.9361L911.271 93.0111M919.871 82.9361H993.3M919.871 82.9361H846.443M993.3 82.9361L986.133 93.0111M993.3 82.9361H1066.73M1066.73 82.9361L1060.99 93.0111M911.271 93.0111H986.133M911.271 93.0111H836.409M978.681 103.487L986.133 93.0111M978.681 103.487L970.927 114.388M978.681 103.487H1055.03M986.133 93.0111H1060.99M836.409 93.0111H761.547M836.409 93.0111L846.443 82.9361M1060.99 93.0111L1055.03 103.487M846.443 82.9361H773.012M970.927 114.388L962.851 125.741M970.927 114.388H1048.83M1055.03 103.487L1053.51 106.171L1048.83 114.388M1048.83 114.388L1046.44 118.59L1044.01 122.858L1042.37 125.741M883.332 125.741L878.333 131.595L873.23 137.575M883.332 125.741H962.851M883.332 125.741H803.813M962.851 125.741L954.432 137.575M962.851 125.741H1042.37M1042.37 125.741L1035.63 137.575M873.23 137.575H954.432M873.23 137.575H792.029M945.65 149.921L954.432 137.575M945.65 149.921L936.479 162.812M945.65 149.921H1028.61M954.432 137.575H1035.63M792.029 137.575H710.825M792.029 137.575L803.813 125.741M1035.63 137.575L1028.61 149.921M803.813 125.741H724.295M936.479 162.812L934.123 166.124L926.895 176.287M936.479 162.812H1021.27M1028.61 149.921L1021.27 162.812M1021.27 162.812L1020.33 164.464L1017.48 169.474L1013.6 176.287M840.185 176.287L828.15 190.385M840.185 176.287H926.895M840.185 176.287H753.475M926.895 176.287L916.866 190.385M926.895 176.287H1013.6M1013.6 176.287L1005.58 190.385M828.15 190.385H916.866M828.15 190.385H739.435M906.362 205.15L912.985 195.841L916.866 190.385M906.362 205.15L895.348 220.632M906.362 205.15H997.178M916.866 190.385H1005.58M739.435 190.385H650.719M739.435 190.385L753.475 176.287M1005.58 190.385L997.178 205.15M753.475 176.287H666.765M895.348 220.632L883.788 236.884M895.348 220.632H988.368M997.178 205.15L988.368 220.632M988.368 220.632L979.119 236.884M788.457 236.884L773.876 253.964M788.457 236.884H883.788M788.457 236.884H693.127M883.788 236.884L871.638 253.964M883.788 236.884H979.119M979.119 236.884L969.399 253.964M773.876 253.964H871.638M773.876 253.964H676.116M858.853 271.937L871.638 253.964M858.853 271.937L845.38 290.876M858.853 271.937H959.171M871.638 253.964H969.399M676.116 253.964H578.356M676.116 253.964L693.127 236.884M969.399 253.964L959.171 271.937M693.127 236.884H597.795M845.38 290.876L831.164 310.862M845.38 290.876H948.392M959.171 271.937L948.392 290.876M948.392 290.876L937.019 310.862M725.308 310.862L707.28 331.98M725.308 310.862H831.164M725.308 310.862H619.452M831.164 310.862L816.141 331.98M831.164 310.862H937.019M937.019 310.862L925.001 331.98M707.28 331.98H816.141M707.28 331.98H598.42M800.239 354.334L816.141 331.98M800.239 354.334L783.382 378.031M800.239 354.334H912.281M816.141 331.98H925.001M598.42 331.98H489.56M598.42 331.98L619.452 310.862M925.001 331.98L912.281 354.334M619.452 310.862H513.597M783.382 378.031L765.477 403.201M783.382 378.031H898.794M912.281 354.334L898.794 378.031M898.794 378.031L884.47 403.201M646.484 403.201L623.624 429.982M646.484 403.201H765.477M646.484 403.201H527.491M765.477 403.201L746.427 429.982M765.477 403.201H884.47M884.47 403.201L869.23 429.982M623.624 429.982H746.427M623.624 429.982H500.821M726.117 458.534L746.427 429.982M726.117 458.534L704.415 489.04M726.117 458.534H852.982M746.427 429.982H869.23M500.821 429.982H378.018M500.821 429.982L527.491 403.201M869.23 429.982L852.982 458.534M527.491 403.201H408.498M704.415 489.04L681.178 521.707M704.415 489.04H835.621M852.982 458.534L835.621 489.04M835.621 489.04L817.03 521.707M545.325 521.707L515.391 556.774M545.325 521.707H681.178M545.325 521.707H409.471M681.178 521.707L656.233 556.774M681.178 521.707H817.03M817.03 521.707L797.075 556.774M515.391 556.774H656.233M515.391 556.774H374.549M629.386 594.513L656.233 556.774M629.386 594.513L600.411 635.246M629.386 594.513H775.597M656.233 556.774H797.075M374.549 556.774H233.707M374.549 556.774L409.471 521.707M797.075 556.774L775.597 594.513M409.471 521.707H273.618M600.411 635.246L569.045 679.34M600.411 635.246H752.417M775.597 594.513L752.417 635.246M752.417 635.246L727.325 679.34M410.766 679.34L369.885 727.229M410.766 679.34H569.045M410.766 679.34H252.486M569.045 679.34L534.978 727.229M569.045 679.34H727.325M727.325 679.34L700.071 727.229M369.885 727.229H534.978M369.885 727.229H204.792M497.847 779.428L534.978 727.229M497.847 779.428L457.217 836.543M497.847 779.428H670.366M534.978 727.229H700.071M204.792 727.229H39.6993M204.792 727.229L252.486 679.34M700.071 727.229L670.366 779.428M252.486 679.34H94.2067M457.217 836.543L412.572 899.305M457.217 836.543H637.863M670.366 779.428L637.863 836.543M637.863 836.543L602.145 899.305M222.997 899.305L163.849 968.595M222.997 899.305H412.572M222.997 899.305H33.422M412.572 899.305L363.282 968.595M412.572 899.305H602.145M602.145 899.305L562.713 968.595M0.732269 968.594L163.849 968.595H363.282M363.282 968.595H562.713M33.422 899.305L0.732269 932.131M33.422 899.305H0.732269M678.389 46.2226L666.04 54.9028M678.389 46.2226H746.594M678.389 46.2226H610.184M757.321 37.8455L767.678 29.7563M757.321 37.8455L746.594 46.2226M757.321 37.8455H824.334M767.678 29.7563H833.541M767.678 29.7563L777.686 21.9411M712.934 21.9411H777.686M712.934 21.9411L717.009 19.0778L723.686 14.3845M712.934 21.9411H648.184M746.594 46.2226L735.48 54.9028M746.594 46.2226H814.799M824.334 37.8455L833.541 29.7563M824.334 37.8455L814.799 46.2226M833.541 29.7563L840.242 23.8698L842.437 21.9411M777.686 21.9411L778.913 20.9815L787.362 14.3845M777.686 21.9411H842.437M814.799 46.2226L804.92 54.9028M907.188 21.9411L914.713 14.3845M907.188 21.9411H842.437M842.437 21.9411L845.696 19.0778L851.037 14.3845M666.04 54.9028H735.48M666.04 54.9028H596.6M723.957 63.9028L735.48 54.9028M723.957 63.9028L712 73.2408M723.957 63.9028H794.677M735.48 54.9028H804.92M596.6 54.9028H527.16M596.6 54.9028L610.184 46.2226M804.92 54.9028L794.677 63.9028M610.184 46.2226H541.979M712 73.2408L708.939 75.6299L699.584 82.9361M712 73.2408H784.049M794.677 63.9028L784.049 73.2408M784.049 73.2408L773.012 82.9361M626.155 82.9361L624.395 84.1752L611.823 93.0111M626.155 82.9361H699.584M626.155 82.9361H552.727M699.584 82.9361L686.685 93.0111M699.584 82.9361H773.012M773.012 82.9361L771.605 84.1752L761.547 93.0111M611.823 93.0111H686.685M611.823 93.0111H536.961M673.272 103.487L686.685 93.0111M673.272 103.487L659.314 114.388M673.272 103.487H749.624M686.685 93.0111H761.547M536.961 93.0111H462.099M536.961 93.0111L552.727 82.9361M761.547 93.0111L749.624 103.487M552.727 82.9361H479.298M659.314 114.388L644.776 125.741M659.314 114.388H737.217M749.624 103.487L737.217 114.388M737.217 114.388L724.295 125.741M565.259 125.741L548.422 137.575M565.259 125.741H644.776M565.259 125.741H485.74M644.776 125.741L629.624 137.575M644.776 125.741H724.295M724.295 125.741L710.825 137.575M548.422 137.575H629.624M548.422 137.575H467.219M613.816 149.921L629.624 137.575M613.816 149.921L597.308 162.812M613.816 149.921H696.774M629.624 137.575H710.825M467.219 137.575H386.018M467.219 137.575L485.74 125.741M710.825 137.575L696.774 149.921M485.74 125.741H406.221M597.308 162.812L580.055 176.287M597.308 162.812H682.102M696.774 149.921L682.102 162.812M682.102 162.812L666.765 176.287M493.345 176.287L473.288 190.385M493.345 176.287H580.055M493.345 176.287H406.636M580.055 176.287L562.004 190.385M580.055 176.287H666.765M666.765 176.287L650.719 190.385M473.288 190.385H562.004M473.288 190.385H384.573M543.097 205.15L562.004 190.385M543.097 205.15L523.273 220.632M543.097 205.15H633.913M562.004 190.385H650.719M384.573 190.385H295.857M384.573 190.385L406.636 176.287M650.719 190.385L633.913 205.15M406.636 176.287H319.926M523.273 220.632L502.464 236.884M523.273 220.632H616.292M633.913 205.15L616.292 220.632M616.292 220.632L597.795 236.884M407.133 236.884L382.834 253.964M407.133 236.884H502.464M407.133 236.884H311.803M502.464 236.884L480.594 253.964M502.464 236.884H597.795M597.795 236.884L578.356 253.964M382.834 253.964H480.594M382.834 253.964H285.072M457.579 271.937L480.594 253.964M457.579 271.937L433.33 290.876M457.579 271.937H557.898M480.594 253.964H578.356M285.072 253.964H187.311M285.072 253.964L311.803 236.884M578.356 253.964L557.898 271.937M311.803 236.884H216.472M433.33 290.876L407.74 310.862M433.33 290.876H536.342M557.898 271.937L536.342 290.876M536.342 290.876L513.597 310.862M301.884 310.862L271.839 331.98M301.884 310.862H407.74M301.884 310.862H196.029M407.74 310.862L380.699 331.98M407.74 310.862H513.597M513.597 310.862L489.56 331.98M271.839 331.98H380.699M271.839 331.98H162.978M352.077 354.334L380.699 331.98M352.077 354.334L321.733 378.031M352.077 354.334H464.117M380.699 331.98H489.56M162.978 331.98H54.1179M162.978 331.98L196.029 310.862M489.56 331.98L464.117 354.334M196.029 310.862H90.1729M321.733 378.031L289.505 403.201M321.733 378.031H437.146M464.117 354.334L437.146 378.031M437.146 378.031L408.498 403.201M170.512 403.201L132.412 429.982M170.512 403.201H289.505M170.512 403.201H51.5189M289.505 403.201L255.215 429.982M289.505 403.201H408.498M408.498 403.201L378.018 429.982M132.412 429.982H255.215M132.412 429.982H9.60863M218.654 458.534L255.215 429.982M218.654 458.534L179.594 489.04M218.654 458.534H345.519M255.215 429.982H378.018M9.60863 429.982L51.5189 403.201M9.60863 429.982H0.732269M9.60863 429.982L0.732269 435.653M378.018 429.982L345.519 458.534M51.5189 403.201H0.732269M179.594 489.04L137.766 521.707M179.594 489.04H310.799M345.519 458.534L310.799 489.04M310.799 489.04L273.618 521.707M1.9121 521.707H137.766M1.9121 521.707H0.732269M1.9121 521.707L0.732269 522.536M137.766 521.707L92.864 556.774M137.766 521.707H273.618M273.618 521.707L233.707 556.774M44.5404 594.513L92.864 556.774M44.5404 594.513H190.752M44.5404 594.513H0.732269M44.5404 594.513L0.732269 628.727M92.864 556.774H233.707M92.864 556.774H0.732269M233.707 556.774L190.752 594.513M190.752 594.513L144.393 635.246M144.393 635.246L94.2067 679.34M144.393 635.246H0.732269M94.2067 679.34L39.6993 727.229M94.2067 679.34H0.732269M39.6993 727.229H0.732269M39.6993 727.229L0.732269 761.466M405.568 46.2226L388.28 54.9028M405.568 46.2226H473.774M405.568 46.2226H337.363M489.266 37.8455L504.227 29.7563M489.266 37.8455L473.774 46.2226M489.266 37.8455H556.28M504.227 29.7563H570.09M504.227 29.7563L518.683 21.9411M453.932 21.9411H518.683M453.932 21.9411L468.983 14.3845M453.932 21.9411H389.182M473.774 46.2226L457.72 54.9028M473.774 46.2226H541.979M556.28 37.8455L570.09 29.7563M556.28 37.8455L541.979 46.2226M570.09 29.7563L583.433 21.9411M518.683 21.9411L520.455 20.9815L532.658 14.3845M518.683 21.9411H583.433M541.979 46.2226L527.16 54.9028M648.184 21.9411L660.009 14.3845M648.184 21.9411H583.433M583.433 21.9411L585.069 20.9815L596.334 14.3845M388.28 54.9028H457.72M388.28 54.9028H318.839M441.073 63.9028L457.72 54.9028M441.073 63.9028L423.802 73.2408M441.073 63.9028H511.795M457.72 54.9028H527.16M318.839 54.9028H249.399M318.839 54.9028L337.363 46.2226M527.16 54.9028L511.795 63.9028M337.363 46.2226H269.158M423.802 73.2408L405.869 82.9361M423.802 73.2408H495.851M511.795 63.9028L509.833 65.0501L495.851 73.2408M495.851 73.2408L479.298 82.9361M332.441 82.9361L312.375 93.0111M332.441 82.9361H405.869M332.441 82.9361H259.012M405.869 82.9361L387.237 93.0111M405.869 82.9361H479.298M479.298 82.9361L462.099 93.0111M312.375 93.0111H387.237M312.375 93.0111H237.513M367.863 103.487L387.237 93.0111M367.863 103.487L347.701 114.388M367.863 103.487H444.215M387.237 93.0111H462.099M237.513 93.0111H162.651M237.513 93.0111L259.012 82.9361M462.099 93.0111L444.215 103.487M259.012 82.9361H185.584M347.701 114.388L326.703 125.741M347.701 114.388H425.604M444.215 103.487L425.604 114.388M425.604 114.388L406.221 125.741M247.184 125.741L223.613 137.575M247.184 125.741H326.703M247.184 125.741H167.665M326.703 125.741L304.816 137.575M326.703 125.741H406.221M406.221 125.741L386.018 137.575M223.613 137.575H304.816M223.613 137.575H142.411M281.981 149.921L304.816 137.575M281.981 149.921L258.138 162.812M281.981 149.921H364.941M304.816 137.575H386.018M142.411 137.575H61.2096M142.411 137.575L167.665 125.741M386.018 137.575L364.941 149.921M167.665 125.741H88.1475M258.138 162.812L233.216 176.287M258.138 162.812H342.93M364.941 149.921L342.93 162.812M342.93 162.812L319.926 176.287M146.506 176.287L118.427 190.385M146.506 176.287H233.216M146.506 176.287H59.7975M233.216 176.287L207.142 190.385M233.216 176.287H319.926M319.926 176.287L295.857 190.385M118.427 190.385H207.142M179.832 205.15L207.142 190.385M179.832 205.15L151.198 220.632M179.832 205.15H270.649M207.142 190.385H295.857M295.857 190.385L270.649 205.15M59.7975 176.287H0.732269M151.198 220.632L121.14 236.884M151.198 220.632H244.217M270.649 205.15L244.217 220.632M244.217 220.632L216.472 236.884M25.809 236.884H121.14M25.809 236.884H0.732269M25.809 236.884L0.732269 249.474M121.14 236.884L89.5497 253.964M121.14 236.884H216.472M216.472 236.884L187.311 253.964M56.3076 271.937L89.5497 253.964M56.3076 271.937L21.2795 290.876M56.3076 271.937H156.626M56.3076 271.937H0.732269M89.5497 253.964H187.311M89.5497 253.964H0.732269M187.311 253.964L156.626 271.937M0.456078 249.612L0.732269 249.474M21.2795 290.876H124.292M21.2795 290.876H0.732269M21.2795 290.876L0.732269 301.986M156.626 271.937L124.292 290.876M124.292 290.876L90.1729 310.862M90.1729 310.862L54.1179 331.98M90.1729 310.862H0.732269M15.9554 354.334L54.1179 331.98M15.9554 354.334H0.732269M15.9554 354.334L0.732269 363.25M54.1179 331.98H0.732269M132.747 46.2226L110.519 54.9028M132.747 46.2226H200.953M132.747 46.2226H64.5409M221.212 37.8455L240.776 29.7563M221.212 37.8455L200.953 46.2226M221.212 37.8455H288.226M240.776 29.7563H306.639M240.776 29.7563L259.679 21.9411M194.929 21.9411H259.679M194.929 21.9411L214.279 14.3845M194.929 21.9411H130.178M200.953 46.2226L179.959 54.9028M200.953 46.2226H269.158M288.226 37.8455L306.639 29.7563M288.226 37.8455L269.158 46.2226M306.639 29.7563L324.43 21.9411M259.679 21.9411H324.43M259.679 21.9411L277.956 14.3845M269.158 46.2226L249.399 54.9028M389.182 21.9411L405.307 14.3845M389.182 21.9411H324.43M324.43 21.9411L341.632 14.3845M110.519 54.9028H179.959M110.519 54.9028H41.0788M158.191 63.9028L179.959 54.9028M158.191 63.9028L135.606 73.2408M158.191 63.9028H228.912M179.959 54.9028H249.399M41.0788 54.9028L64.5409 46.2226M41.0788 54.9028H0.732269M249.399 54.9028L228.912 63.9028M64.5409 46.2226H0.732269M135.606 73.2408L112.155 82.9361M135.606 73.2408H207.655M228.912 63.9028L207.655 73.2408M207.655 73.2408L185.584 82.9361M38.7263 82.9361L12.9272 93.0111M38.7263 82.9361H112.155M38.7263 82.9361H0.732269M112.155 82.9361L87.7892 93.0111M112.155 82.9361H185.584M185.584 82.9361L162.651 93.0111M62.4532 103.487L87.7892 93.0111M62.4532 103.487L36.0876 114.388M62.4532 103.487H138.805M62.4532 103.487H0.732269M87.7892 93.0111H12.9272M87.7892 93.0111H162.651M12.9272 93.0111L0.732269 97.7726M12.9272 93.0111H0.732269M162.651 93.0111L138.805 103.487M36.0876 114.388L8.6285 125.741M36.0876 114.388H113.99M36.0876 114.388H0.732269M138.805 103.487L113.99 114.388M113.99 114.388L88.1475 125.741M8.6285 125.741H88.1475M8.6285 125.741L0.732269 129.005M8.6285 125.741H0.732269M88.1475 125.741L61.2096 137.575M33.1061 149.921L61.2096 137.575M33.1061 149.921L3.76046 162.812M33.1061 149.921H0.732269M61.2096 137.575H0.732269M0.307355 137.575H0.732269M3.76046 162.812H0.732269M3.76046 162.812L0.732269 164.142M0 164.464L0.732269 164.142M20.1719 37.8455L43.1878 29.7563M20.1719 37.8455H0.732269M20.1719 37.8455L0.732269 44.677M43.1878 29.7563L65.4276 21.9411M43.1878 29.7563H0.732269M130.178 21.9411L150.604 14.3845M130.178 21.9411H65.4276M65.4276 21.9411L86.928 14.3845M65.4276 21.9411H0.732269M2251.9 14.3845H2315.58M2251.9 14.3845H2188.23M2299.98 7.07541L2303.83 8.88044L2315.58 14.3845M2299.98 7.07541H2362.62M2315.58 14.3845H2379.25M2362.62 7.07541L2366.72 8.88044L2368.79 9.78713L2379.25 14.3845M2379.25 14.3845H2442.93M2442.93 14.3845H2506.61M2188.23 14.3845H2124.55M2506.61 14.3845H2570.28M2570.28 14.3845L2550.52 7.07541M2570.28 14.3845H2633.96M2550.52 7.07541H2613.16M1997.2 14.3845H2060.88M1997.2 14.3845H1933.52M2049.44 7.07541L2052.26 8.88044L2053.68 9.78713L2060.88 14.3845M2049.44 7.07541H2112.07M2060.88 14.3845H2124.55M2112.07 7.07541L2124.55 14.3845M1933.52 14.3845H1869.85M1742.5 14.3845H1806.17M1742.5 14.3845H1678.82M1798.89 7.07541L1799.79 7.97515L1800.69 8.88044L1801.6 9.78713L1806.17 14.3845M1798.89 7.07541H1861.53M1806.17 14.3845H1869.85M1861.53 7.07541L1869.85 14.3845M1678.82 14.3845H1615.14M1487.79 14.3845H1551.47M1487.79 14.3845H1424.12M1548.35 7.07541L1551.47 14.3845M1548.35 7.07541H1610.99M1551.47 14.3845H1615.14M1610.99 7.07541L1611.5 7.97515L1612.01 8.88044L1612.53 9.78713L1615.14 14.3845M1424.12 14.3845H1360.44M1233.09 14.3845H1296.77M1233.09 14.3845H1169.42M1297.81 7.07541L1296.77 14.3845M1297.81 7.07541H1360.44M1296.77 14.3845H1360.44M1360.44 7.07541V14.3845M1169.42 14.3845H1105.74M978.388 14.3845H1042.06M978.388 14.3845H914.713M1047.26 7.07541L1045.98 8.88044L1043.38 12.5336L1042.06 14.3845M1047.26 7.07541H1109.9M1042.06 14.3845H1105.74M1109.9 7.07541L1109.39 7.97515L1108.87 8.88044L1108.36 9.78713L1105.74 14.3845M914.713 14.3845H851.037M723.686 14.3845H787.362M723.686 14.3845H660.009M796.721 7.07541L794.41 8.88044L793.247 9.78713L787.362 14.3845M796.721 7.07541H859.357M787.362 14.3845H851.037M859.357 7.07541L858.331 7.97515L851.037 14.3845M660.009 14.3845H596.334M468.983 14.3845H532.658M468.983 14.3845H405.307M546.177 7.07541L542.839 8.88044L541.159 9.78713L532.658 14.3845M546.177 7.07541H608.813M532.658 14.3845H596.334M608.813 7.07541L607.275 7.97515L596.334 14.3845M405.307 14.3845H341.632M214.279 14.3845H277.956M214.279 14.3845H150.604M295.634 7.07541L277.956 14.3845M295.634 7.07541H358.27M277.956 14.3845H341.632M358.27 7.07541L354.162 8.88044L352.094 9.78713L341.632 14.3845M150.604 14.3845H86.928M45.0914 7.07541L23.2525 14.3845M45.0914 7.07541H107.727M45.0914 7.07541H0.732269M23.2525 14.3845H86.928M23.2525 14.3845L0.732269 21.9226M23.2525 14.3845H0.732269M107.727 7.07541L102.592 8.88044L86.928 14.3845M2613.16 7.07541L2618.29 8.88044L2633.96 14.3845M2633.96 14.3845H2697.63M2697.63 14.3845L2720.15 21.9226M2697.63 14.3845H2720.15M2720.15 363.25V354.334M2720.15 363.25V378.031M2720.15 354.334V331.98M2720.15 378.031V382.448V403.201M2720.15 403.201V429.982M2720.15 190.385V176.287M2720.15 190.385V203.964M2720.15 7.07541V14.3845M2720.15 14.3845V21.9226M2720.15 21.9226L2720.21 21.9411H2720.15M2720.15 21.9226V21.9411M2720.15 21.9411V29.7563M2720.15 29.7563V37.8455M2720.15 37.8455V44.677M2720.15 44.677V46.2226M2720.15 46.2226V54.9028M2720.15 54.9028V63.9028M2720.15 63.9028V69.827M2720.15 69.827V73.2408M2720.15 73.2408V82.9361M2720.15 82.9361V93.0111M2720.15 93.0111V97.7726M2720.15 97.7726V103.487M2720.15 103.487V114.388M2720.15 114.388V125.741M2720.15 125.741V129.005M2720.15 129.005V137.575M2720.15 137.575V149.921M2720.15 149.921V162.812M2720.15 162.812V164.142M2720.15 164.142V176.287M2720.15 205.15V220.632M2720.15 205.15V203.964M2720.15 220.632V236.884M2720.15 236.884V249.474M2720.15 249.474V253.964M2720.15 253.964V271.937M2720.15 271.937V290.876M2720.15 290.876V301.986M2720.15 301.986V310.862M2720.15 310.862V331.98M2720.15 429.982V435.653M2720.15 435.653V458.534M2720.15 458.534V489.04M2720.15 489.04V521.707M2720.15 521.707V522.536M2720.15 522.536V556.774M2720.15 556.774V594.513M2720.15 594.513V628.727M2720.15 628.727V635.246M2720.15 635.246V679.34M2720.15 679.34V727.229M2720.15 727.229V761.466M2720.15 761.466V779.428M2720.15 779.428V836.543M2720.15 836.543V899.305M2720.15 899.305V932.131M2720.15 932.131V968.594M2720.15 968.594V968.842H0.732269V968.594M0.732269 205.15V220.632M0.732269 205.15V203.963M0.732269 203.963V190.385M0.732269 190.385V176.287M0.732269 176.287V164.142M0.732269 164.142V162.812M0.732269 162.812V149.921M0.732269 149.921V137.575M0.732269 137.575V129.005M0.732269 129.005V125.741M0.732269 125.741V114.388M0.732269 114.388V103.487M0.732269 103.487V97.7726M0.732269 97.7726V93.0111M0.732269 93.0111V82.9361M0.732269 82.9361V73.2408M0.732269 73.2408V69.827M0.732269 69.827V63.9028M0.732269 63.9028V54.9028M0.732269 54.9028V46.2226M0.732269 46.2226V44.677M0.732269 44.677V37.8455M0.732269 37.8455V29.7563M0.732269 29.7563V21.9411M0.732269 21.9411H0.677029L0.732269 21.9226M0.732269 21.9411V21.9226M0.732269 21.9226V14.3845M0.732269 14.3845V7.07541M0.732269 968.594V932.131M0.732269 932.131V899.305M0.732269 899.305V836.544M0.732269 836.544V779.428M0.732269 779.428V761.466M0.732269 761.466V727.229M0.732269 727.229V679.34M0.732269 679.34V635.246M0.732269 635.246V628.727M0.732269 628.727V594.513M0.732269 594.513V556.774M0.732269 556.774V522.536M0.732269 522.536V521.707M0.732269 521.707V489.04M0.732269 489.04V458.534M0.732269 458.534V435.653M0.732269 435.653V429.982M0.732269 429.982V403.201M0.732269 403.201V378.031M0.732269 378.031V363.25M0.732269 363.25V354.334M0.732269 354.334V331.98M0.732269 331.98V310.862M0.732269 310.862V301.986M0.732269 301.986V290.876M0.732269 290.876V271.937M0.732269 271.937V253.964M0.732269 253.964V249.474M0.732269 249.474V236.884M0.732269 236.884V220.632" stroke="url(#paint0_linear_389_11380)" stroke-width="1.2" stroke-miterlimit="10" stroke-linecap="round" stroke-linejoin="round"/>
</g>
<defs>
<linearGradient id="paint0_linear_389_11380" x1="1360.44" y1="0" x2="1360.44" y2="679.277" gradientUnits="userSpaceOnUse">
<stop stop-color="#8E9196" stop-opacity="0"/>
<stop offset="1" stop-color="#8E9196"/>
</linearGradient>
<clipPath id="clip0_389_11380">
<rect width="2721" height="969" fill="white"/>
</clipPath>
</defs>
</svg>
