<svg width="130" height="130" viewBox="0 0 130 130" fill="none" xmlns="http://www.w3.org/2000/svg">
<g filter="url(#filter0_d_389_11285)">
<path d="M15 43.5714C15 27.7919 27.7919 15 43.5714 15L86.4286 15C102.208 15 115 27.7919 115 43.5714V86.4286C115 102.208 102.208 115 86.4286 115H43.5714C27.7919 115 15 102.208 15 86.4286L15 43.5714Z" fill="white"/>
<path d="M43.5713 43.5714V81.6667C43.5713 82.9296 44.073 84.1408 44.966 85.0338C45.859 85.9269 47.0703 86.4286 48.3332 86.4286H86.4284M53.0951 74.5238C54.2856 69.7619 56.6665 57.8571 62.6189 57.8571C67.3808 57.8571 67.3808 65 72.1427 65C78.0951 65 82.857 53.0952 84.0475 48.3333" stroke="#2563EB" stroke-width="5.35714" stroke-linecap="round" stroke-linejoin="round"/>
</g>
<defs>
<filter id="filter0_d_389_11285" x="0" y="0" width="130" height="130" filterUnits="userSpaceOnUse" color-interpolation-filters="sRGB">
<feFlood flood-opacity="0" result="BackgroundImageFix"/>
<feColorMatrix in="SourceAlpha" type="matrix" values="0 0 0 0 0 0 0 0 0 0 0 0 0 0 0 0 0 0 127 0" result="hardAlpha"/>
<feOffset/>
<feGaussianBlur stdDeviation="7.5"/>
<feComposite in2="hardAlpha" operator="out"/>
<feColorMatrix type="matrix" values="0 0 0 0 0 0 0 0 0 0 0 0 0 0 0 0 0 0 0.12 0"/>
<feBlend mode="normal" in2="BackgroundImageFix" result="effect1_dropShadow_389_11285"/>
<feBlend mode="normal" in="SourceGraphic" in2="effect1_dropShadow_389_11285" result="shape"/>
</filter>
</defs>
</svg>
