<svg width="100" height="29" viewBox="0 0 100 29" fill="none" xmlns="http://www.w3.org/2000/svg">
<path d="M16.0457 17.56L13.3543 9.94853C13.1943 9.54853 13.0229 9.07996 12.84 8.54282C12.6686 8.00567 12.5029 7.42281 12.3429 6.79424C12.1829 7.43424 12.0114 8.02853 11.8286 8.5771C11.6571 9.11424 11.4914 9.58282 11.3314 9.98281L8.65714 17.56H16.0457ZM24.6857 27.0057H20.6914C20.2457 27.0057 19.88 26.9028 19.5943 26.6971C19.32 26.48 19.1143 26.2057 18.9771 25.8742L17.2971 21.1257H7.38857L5.70857 25.8742C5.59429 26.16 5.39429 26.4228 5.10857 26.6628C4.82286 26.8914 4.46286 27.0057 4.02857 27.0057H0L9.72 2.13139H14.9829L24.6857 27.0057Z" fill="#383838"/>
<path d="M35.2093 27.0057V9.33139H38.1236C38.7179 9.33139 39.1121 9.60567 39.3064 10.1542L39.5807 11.3028C39.8893 10.9828 40.2036 10.6857 40.5236 10.4114C40.855 10.1371 41.2093 9.90281 41.5864 9.70853C41.9636 9.50281 42.3693 9.34281 42.8036 9.22853C43.2493 9.11424 43.7293 9.0571 44.2436 9.0571C45.3293 9.0571 46.2264 9.34853 46.935 9.93139C47.6436 10.5028 48.1807 11.2685 48.5464 12.2285C48.8321 11.6685 49.1807 11.1885 49.5921 10.7885C50.015 10.3771 50.4721 10.0457 50.9636 9.79424C51.4664 9.54281 51.9921 9.35996 52.5407 9.24567C53.1007 9.11996 53.6607 9.0571 54.2207 9.0571C55.215 9.0571 56.095 9.20567 56.8607 9.50282C57.6264 9.79996 58.2664 10.24 58.7807 10.8228C59.3064 11.3942 59.7064 12.0971 59.9807 12.9314C60.255 13.7657 60.3921 14.7142 60.3921 15.7771V27.0057H55.6607V15.7771C55.6607 13.7085 54.775 12.6742 53.0036 12.6742C52.6036 12.6742 52.2321 12.7428 51.8893 12.88C51.5579 13.0057 51.2607 13.2 50.9979 13.4628C50.7464 13.7257 50.5464 14.0514 50.3979 14.44C50.2607 14.8285 50.1921 15.2742 50.1921 15.7771V27.0057H45.4607V15.7771C45.4607 14.6571 45.2379 13.8628 44.7921 13.3942C44.3579 12.9142 43.7121 12.6742 42.855 12.6742C42.3064 12.6742 41.7864 12.8057 41.295 13.0685C40.815 13.32 40.3636 13.6742 39.9407 14.1314V27.0057H35.2093Z" fill="#383838"/>
<path d="M72.1093 9.0571C73.435 9.0571 74.6407 9.26853 75.7264 9.69139C76.8121 10.1142 77.7436 10.72 78.5207 11.5085C79.2979 12.2857 79.8979 13.2342 80.3207 14.3542C80.7436 15.4742 80.955 16.7371 80.955 18.1428C80.955 19.5485 80.7436 20.8171 80.3207 21.9485C79.8979 23.0685 79.2979 24.0228 78.5207 24.8114C77.7436 25.6 76.8121 26.2057 75.7264 26.6285C74.6407 27.0514 73.435 27.2628 72.1093 27.2628C70.7721 27.2628 69.555 27.0514 68.4579 26.6285C67.3721 26.2057 66.4407 25.6 65.6636 24.8114C64.8864 24.0228 64.2807 23.0685 63.8464 21.9485C63.4236 20.8171 63.2121 19.5485 63.2121 18.1428C63.2121 16.7371 63.4236 15.4742 63.8464 14.3542C64.2807 13.2342 64.8864 12.2857 65.6636 11.5085C66.4407 10.72 67.3721 10.1142 68.4579 9.69139C69.555 9.26853 70.7721 9.0571 72.1093 9.0571ZM72.1093 23.7142C73.4579 23.7142 74.4579 23.2514 75.1093 22.3257C75.7607 21.3885 76.0864 20 76.0864 18.16C76.0864 16.3314 75.7607 14.9542 75.1093 14.0285C74.4579 13.0914 73.4579 12.6228 72.1093 12.6228C70.7264 12.6228 69.7093 13.0914 69.0579 14.0285C68.4064 14.9542 68.0807 16.3314 68.0807 18.16C68.0807 20 68.4064 21.3885 69.0579 22.3257C69.7093 23.2514 70.7264 23.7142 72.1093 23.7142Z" fill="#383838"/>
<path d="M94.9144 12.9657C94.7887 13.16 94.6572 13.3028 94.5201 13.3942C94.3944 13.4742 94.2172 13.5142 93.9887 13.5142C93.7601 13.5142 93.5258 13.4571 93.2858 13.3428C93.0458 13.2285 92.7772 13.1085 92.4801 12.9828C92.1829 12.8457 91.8401 12.72 91.4515 12.6057C91.0744 12.4914 90.6344 12.4342 90.1315 12.4342C89.3658 12.4342 88.7715 12.5942 88.3487 12.9142C87.9258 13.2228 87.7144 13.6342 87.7144 14.1485C87.7144 14.5028 87.8344 14.8 88.0744 15.04C88.3144 15.28 88.6287 15.4914 89.0172 15.6742C89.4172 15.8457 89.8687 16.0114 90.3715 16.1714C90.8744 16.32 91.3887 16.4857 91.9144 16.6685C92.4515 16.8514 92.9715 17.0628 93.4744 17.3028C93.9772 17.5428 94.423 17.8457 94.8115 18.2114C95.2115 18.5657 95.5315 19 95.7715 19.5142C96.0115 20.0171 96.1315 20.6285 96.1315 21.3485C96.1315 22.2057 95.9715 23 95.6515 23.7314C95.3429 24.4514 94.8858 25.0742 94.2801 25.6C93.6744 26.1257 92.9201 26.5371 92.0172 26.8342C91.1144 27.1314 90.0744 27.28 88.8972 27.28C88.2915 27.28 87.6915 27.2228 87.0972 27.1085C86.503 27.0057 85.9372 26.8571 85.4001 26.6628C84.863 26.4571 84.3601 26.2228 83.8915 25.96C83.423 25.6971 83.0172 25.4114 82.6744 25.1028L83.7715 23.3371C83.8972 23.1314 84.0515 22.9714 84.2344 22.8571C84.4287 22.7428 84.6744 22.6857 84.9715 22.6857C85.2572 22.6857 85.5201 22.76 85.7601 22.9085C86.0001 23.0457 86.2687 23.2 86.5658 23.3714C86.8629 23.5314 87.2115 23.6857 87.6115 23.8342C88.0229 23.9714 88.5315 24.04 89.1372 24.04C89.5944 24.04 89.9887 23.9885 90.3201 23.8857C90.6515 23.7828 90.9201 23.6457 91.1258 23.4742C91.3315 23.2914 91.4801 23.0914 91.5715 22.8742C91.6744 22.6457 91.7258 22.4114 91.7258 22.1714C91.7258 21.7828 91.6001 21.4685 91.3487 21.2285C91.1087 20.9771 90.7887 20.76 90.3887 20.5771C90.0001 20.3942 89.5487 20.2285 89.0344 20.08C88.5201 19.9314 87.9944 19.7657 87.4572 19.5828C86.9315 19.4 86.4115 19.1828 85.8972 18.9314C85.3944 18.68 84.9429 18.3657 84.5429 17.9885C84.1544 17.6 83.8344 17.1257 83.583 16.5657C83.343 16.0057 83.2229 15.3257 83.2229 14.5257C83.2229 13.7942 83.3658 13.1028 83.6515 12.4514C83.9372 11.7885 84.3658 11.2057 84.9372 10.7028C85.5087 10.2 86.2172 9.79996 87.063 9.50282C87.9201 9.20567 88.9087 9.0571 90.0287 9.0571C91.2858 9.0571 92.4287 9.26282 93.4572 9.67424C94.4858 10.0857 95.3315 10.6228 95.9944 11.2857L94.9144 12.9657Z" fill="#383838"/>
<path fill-rule="evenodd" clip-rule="evenodd" d="M31.1716 27.0057V9.33139H26.4402V27.0057H31.1716Z" fill="#383838"/>
<path d="M96.1314 4.30853C96.1314 4.70853 94.3244 5.07996 90.7103 5.42281C87.0962 5.76567 82.1914 6.06853 75.9958 6.33139C70.0583 6.59424 62.9592 6.79996 54.6985 6.94853C46.6959 7.0971 38.0478 7.17139 28.7545 7.17139C28.7545 7.17139 27.9945 7.0971 27.6402 6.94853C27.2973 6.79996 26.9945 6.59424 26.7316 6.33139C26.4688 6.06853 26.2573 5.76567 26.0973 5.42281C25.9488 5.07996 25.8745 4.70853 25.8745 4.30853C25.8745 3.90853 25.9488 3.5371 26.0973 3.19424C26.2573 2.83996 26.4688 2.53139 26.7316 2.26853C26.9945 2.00567 27.2973 1.79996 27.6402 1.65139C27.9945 1.50281 28.7545 1.42853 28.7545 1.42853C38.0478 1.42853 46.6959 1.50281 54.6985 1.65139C62.9592 1.79996 75.9958 2.26853 75.9958 2.26853L90.7103 3.19424C90.7103 3.19424 96.1314 3.90853 96.1314 4.30853Z" fill="#2563EB"/>
</svg>
